<?xml version="1.0" encoding="us-ascii" standalone="no"?><svg xmlns="http://www.w3.org/2000/svg" xmlns:xlink="http://www.w3.org/1999/xlink" contentStyleType="text/css" height="832px" preserveAspectRatio="none" style="width:1032px;height:832px;background:#FFFFFF;" version="1.1" viewBox="0 0 1032 832" width="1032px" zoomAndPan="magnify"><defs/><g><!--class LinkList--><g id="elem_LinkList"><rect codeLine="1" fill="#F1F1F1" height="476.6953" id="LinkList" rx="2.5" ry="2.5" style="stroke:#181818;stroke-width:0.5;" width="467" x="269" y="10"/><ellipse cx="466.75" cy="26" fill="#ADD1B2" rx="11" ry="11" style="stroke:#181818;stroke-width:1.0;"/><path d="M469.2231,32.1431 Q468.6421,32.4419 468.0029,32.5913 Q467.3638,32.7407 466.6582,32.7407 Q464.1514,32.7407 462.8315,31.0889 Q461.5117,29.437 461.5117,26.3159 Q461.5117,23.1865 462.8315,21.5347 Q464.1514,19.8828 466.6582,19.8828 Q467.3638,19.8828 468.0112,20.0322 Q468.6587,20.1816 469.2231,20.4805 L469.2231,23.2031 Q468.5923,22.6221 467.9988,22.3523 Q467.4053,22.0825 466.7744,22.0825 Q465.4297,22.0825 464.7449,23.1492 Q464.0601,24.2158 464.0601,26.3159 Q464.0601,28.4077 464.7449,29.4744 Q465.4297,30.541 466.7744,30.541 Q467.4053,30.541 467.9988,30.2712 Q468.5923,30.0015 469.2231,29.4204 Z " fill="#000000"/><text fill="#000000" font-family="sans-serif" font-size="14" lengthAdjust="spacing" textLength="51" x="487.25" y="31.291">LinkList</text><rect fill="#FFFFFF" height="16.1328" style="stroke:#181818;stroke-width:1.0;stroke-dasharray:2.0,2.0;" width="10" x="729" y="7"/><text fill="#000000" font-family="sans-serif" font-size="12" font-style="italic" lengthAdjust="spacing" textLength="8" x="730" y="19.6016">T</text><line style="stroke:#181818;stroke-width:0.5;" x1="270" x2="735" y1="42" y2="42"/><rect fill="none" height="6" style="stroke:#C82930;stroke-width:1.0;" width="6" x="277" y="52.7441"/><text fill="#000000" font-family="sans-serif" font-size="14" lengthAdjust="spacing" textLength="81" x="289" y="59.5352">Node* head</text><rect fill="none" height="6" style="stroke:#C82930;stroke-width:1.0;" width="6" x="277" y="69.2324"/><text fill="#000000" font-family="sans-serif" font-size="14" lengthAdjust="spacing" textLength="68" x="289" y="76.0234">Node* tail</text><rect fill="none" height="6" style="stroke:#C82930;stroke-width:1.0;" width="6" x="277" y="85.7207"/><text fill="#000000" font-family="sans-serif" font-size="14" lengthAdjust="spacing" textLength="61" x="289" y="92.5117">int count</text><line style="stroke:#181818;stroke-width:0.5;" x1="270" x2="735" y1="99.4648" y2="99.4648"/><ellipse cx="280" cy="113.209" fill="#84BE84" rx="3" ry="3" style="stroke:#038048;stroke-width:1.0;"/><text fill="#000000" font-family="sans-serif" font-size="14" lengthAdjust="spacing" textLength="61" x="289" y="117">LinkList()</text><ellipse cx="280" cy="129.6973" fill="#84BE84" rx="3" ry="3" style="stroke:#038048;stroke-width:1.0;"/><text fill="#000000" font-family="sans-serif" font-size="14" lengthAdjust="spacing" textLength="121" x="289" y="133.4883">LinkList(const T&amp;)</text><ellipse cx="280" cy="146.1855" fill="#84BE84" rx="3" ry="3" style="stroke:#038048;stroke-width:1.0;"/><text fill="#000000" font-family="sans-serif" font-size="14" lengthAdjust="spacing" textLength="172" x="289" y="149.9766">~LinkList(const LinkList&amp;)</text><ellipse cx="280" cy="162.6738" fill="#84BE84" rx="3" ry="3" style="stroke:#038048;stroke-width:1.0;"/><text fill="#000000" font-family="sans-serif" font-size="14" lengthAdjust="spacing" textLength="209" x="289" y="166.4648">~LinkList(LinkList&amp;&amp;) noexcept</text><ellipse cx="280" cy="179.1621" fill="#84BE84" rx="3" ry="3" style="stroke:#038048;stroke-width:1.0;"/><text fill="#000000" font-family="sans-serif" font-size="14" lengthAdjust="spacing" textLength="257" x="289" y="182.9531">~LinkList&amp; operator=(const LinkList&amp;)</text><ellipse cx="280" cy="195.6504" fill="#84BE84" rx="3" ry="3" style="stroke:#038048;stroke-width:1.0;"/><text fill="#000000" font-family="sans-serif" font-size="14" lengthAdjust="spacing" textLength="294" x="289" y="199.4414">~LinkList&amp; operator=(LinkList&amp;&amp;) noexcept</text><ellipse cx="280" cy="212.1387" fill="#84BE84" rx="3" ry="3" style="stroke:#038048;stroke-width:1.0;"/><text fill="#000000" font-family="sans-serif" font-size="14" lengthAdjust="spacing" textLength="85" x="289" y="215.9297">~void clear()</text><ellipse cx="280" cy="228.627" fill="#84BE84" rx="3" ry="3" style="stroke:#038048;stroke-width:1.0;"/><text fill="#000000" font-family="sans-serif" font-size="14" lengthAdjust="spacing" textLength="137" x="289" y="232.418">int getCount() const</text><ellipse cx="280" cy="245.1152" fill="#84BE84" rx="3" ry="3" style="stroke:#038048;stroke-width:1.0;"/><text fill="#000000" font-family="sans-serif" font-size="14" lengthAdjust="spacing" textLength="139" x="289" y="248.9063">bool isEmpty() const</text><ellipse cx="280" cy="261.6035" fill="#84BE84" rx="3" ry="3" style="stroke:#038048;stroke-width:1.0;"/><text fill="#000000" font-family="sans-serif" font-size="14" lengthAdjust="spacing" textLength="207" x="289" y="265.3945">bool isExisted(const T&amp;) const</text><ellipse cx="280" cy="278.0918" fill="#84BE84" rx="3" ry="3" style="stroke:#038048;stroke-width:1.0;"/><text fill="#000000" font-family="sans-serif" font-size="14" lengthAdjust="spacing" textLength="219" x="289" y="281.8828">bool Modify(const T&amp;, const T&amp;)</text><ellipse cx="280" cy="294.5801" fill="#84BE84" rx="3" ry="3" style="stroke:#038048;stroke-width:1.0;"/><text fill="#000000" font-family="sans-serif" font-size="14" lengthAdjust="spacing" textLength="133" x="289" y="298.3711">bool Add(const T&amp;)</text><ellipse cx="280" cy="311.0684" fill="#84BE84" rx="3" ry="3" style="stroke:#038048;stroke-width:1.0;"/><text fill="#000000" font-family="sans-serif" font-size="14" lengthAdjust="spacing" textLength="88" x="289" y="314.8594">bool Delete()</text><ellipse cx="280" cy="327.5566" fill="#84BE84" rx="3" ry="3" style="stroke:#038048;stroke-width:1.0;"/><text fill="#000000" font-family="sans-serif" font-size="14" lengthAdjust="spacing" textLength="104" x="289" y="331.3477">Iterator begin()</text><ellipse cx="280" cy="344.0449" fill="#84BE84" rx="3" ry="3" style="stroke:#038048;stroke-width:1.0;"/><text fill="#000000" font-family="sans-serif" font-size="14" lengthAdjust="spacing" textLength="91" x="289" y="347.8359">Iterator end()</text><ellipse cx="280" cy="360.5332" fill="#84BE84" rx="3" ry="3" style="stroke:#038048;stroke-width:1.0;"/><text fill="#000000" font-family="sans-serif" font-size="14" lengthAdjust="spacing" textLength="110" x="289" y="364.3242">Iterator rbegin()</text><ellipse cx="280" cy="377.0215" fill="#84BE84" rx="3" ry="3" style="stroke:#038048;stroke-width:1.0;"/><text fill="#000000" font-family="sans-serif" font-size="14" lengthAdjust="spacing" textLength="97" x="289" y="380.8125">Iterator rend()</text><ellipse cx="280" cy="393.5098" fill="#84BE84" rx="3" ry="3" style="stroke:#038048;stroke-width:1.0;"/><text fill="#000000" font-family="sans-serif" font-size="14" lengthAdjust="spacing" textLength="192" x="289" y="397.3008">ConstIterator cbegin() const</text><ellipse cx="280" cy="409.998" fill="#84BE84" rx="3" ry="3" style="stroke:#038048;stroke-width:1.0;"/><text fill="#000000" font-family="sans-serif" font-size="14" lengthAdjust="spacing" textLength="179" x="289" y="413.7891">ConstIterator cend() const</text><ellipse cx="280" cy="426.4863" fill="#84BE84" rx="3" ry="3" style="stroke:#038048;stroke-width:1.0;"/><text fill="#000000" font-family="sans-serif" font-size="14" lengthAdjust="spacing" textLength="185" x="289" y="430.2773">ConstIterator begin() const</text><ellipse cx="280" cy="442.9746" fill="#84BE84" rx="3" ry="3" style="stroke:#038048;stroke-width:1.0;"/><text fill="#000000" font-family="sans-serif" font-size="14" lengthAdjust="spacing" textLength="172" x="289" y="446.7656">ConstIterator end() const</text><ellipse cx="280" cy="459.4629" fill="#84BE84" rx="3" ry="3" style="stroke:#038048;stroke-width:1.0;"/><text fill="#000000" font-family="sans-serif" font-size="14" lengthAdjust="spacing" textLength="116" x="289" y="463.2539">void Print() const</text><ellipse cx="280" cy="475.9512" fill="#84BE84" rx="3" ry="3" style="stroke:#038048;stroke-width:1.0;"/><text fill="#000000" font-family="sans-serif" font-size="14" lengthAdjust="spacing" textLength="441" x="289" y="479.7422">friend std::ostream&amp; operator&lt;&lt;(std::ostream&amp;, const LinkList&amp;)</text></g><!--class Node--><g id="elem_Node"><rect codeLine="30" fill="#F1F1F1" height="229.3711" id="Node" rx="2.5" ry="2.5" style="stroke:#181818;stroke-width:0.5;" width="313" x="7" y="571.43"/><ellipse cx="135.25" cy="587.43" fill="#ADD1B2" rx="11" ry="11" style="stroke:#181818;stroke-width:1.0;"/><path d="M137.7231,593.5731 Q137.1421,593.8719 136.5029,594.0213 Q135.8638,594.1707 135.1582,594.1707 Q132.6514,594.1707 131.3315,592.5189 Q130.0117,590.867 130.0117,587.7459 Q130.0117,584.6165 131.3315,582.9647 Q132.6514,581.3128 135.1582,581.3128 Q135.8638,581.3128 136.5112,581.4622 Q137.1587,581.6116 137.7231,581.9105 L137.7231,584.6331 Q137.0923,584.0521 136.4988,583.7823 Q135.9053,583.5125 135.2744,583.5125 Q133.9297,583.5125 133.2449,584.5792 Q132.5601,585.6458 132.5601,587.7459 Q132.5601,589.8377 133.2449,590.9044 Q133.9297,591.971 135.2744,591.971 Q135.9053,591.971 136.4988,591.7012 Q137.0923,591.4315 137.7231,590.8504 Z " fill="#000000"/><text fill="#000000" font-family="sans-serif" font-size="14" lengthAdjust="spacing" textLength="36" x="155.75" y="592.721">Node</text><rect fill="#FFFFFF" height="16.1328" style="stroke:#181818;stroke-width:1.0;stroke-dasharray:2.0,2.0;" width="10" x="313" y="568.43"/><text fill="#000000" font-family="sans-serif" font-size="12" font-style="italic" lengthAdjust="spacing" textLength="8" x="314" y="581.0316">T</text><line style="stroke:#181818;stroke-width:0.5;" x1="8" x2="319" y1="603.43" y2="603.43"/><rect fill="none" height="6" style="stroke:#C82930;stroke-width:1.0;" width="6" x="15" y="614.1741"/><text fill="#000000" font-family="sans-serif" font-size="14" lengthAdjust="spacing" textLength="43" x="27" y="620.9652">T data</text><rect fill="none" height="6" style="stroke:#C82930;stroke-width:1.0;" width="6" x="15" y="630.6624"/><text fill="#000000" font-family="sans-serif" font-size="14" lengthAdjust="spacing" textLength="77" x="27" y="637.4534">Node* prev</text><rect fill="none" height="6" style="stroke:#C82930;stroke-width:1.0;" width="6" x="15" y="647.1507"/><text fill="#000000" font-family="sans-serif" font-size="14" lengthAdjust="spacing" textLength="78" x="27" y="653.9417">Node* next</text><line style="stroke:#181818;stroke-width:0.5;" x1="8" x2="319" y1="660.8948" y2="660.8948"/><ellipse cx="18" cy="674.639" fill="#84BE84" rx="3" ry="3" style="stroke:#038048;stroke-width:1.0;"/><text fill="#000000" font-family="sans-serif" font-size="14" lengthAdjust="spacing" textLength="287" x="27" y="678.43">Node(T, Node* = nullptr, Node* = nullptr)</text><ellipse cx="18" cy="691.1273" fill="#84BE84" rx="3" ry="3" style="stroke:#038048;stroke-width:1.0;"/><text fill="#000000" font-family="sans-serif" font-size="14" lengthAdjust="spacing" textLength="55" x="27" y="694.9183">~Node()</text><ellipse cx="18" cy="707.6155" fill="#84BE84" rx="3" ry="3" style="stroke:#038048;stroke-width:1.0;"/><text fill="#000000" font-family="sans-serif" font-size="14" lengthAdjust="spacing" textLength="117" x="27" y="711.4066">T getData() const</text><ellipse cx="18" cy="724.1038" fill="#84BE84" rx="3" ry="3" style="stroke:#038048;stroke-width:1.0;"/><text fill="#000000" font-family="sans-serif" font-size="14" lengthAdjust="spacing" textLength="103" x="27" y="727.8948">void setData(T)</text><ellipse cx="18" cy="740.5921" fill="#84BE84" rx="3" ry="3" style="stroke:#038048;stroke-width:1.0;"/><text fill="#000000" font-family="sans-serif" font-size="14" lengthAdjust="spacing" textLength="152" x="27" y="744.3831">Node* getNext() const</text><ellipse cx="18" cy="757.0804" fill="#84BE84" rx="3" ry="3" style="stroke:#038048;stroke-width:1.0;"/><text fill="#000000" font-family="sans-serif" font-size="14" lengthAdjust="spacing" textLength="138" x="27" y="760.8714">void setNext(Node*)</text><ellipse cx="18" cy="773.5687" fill="#84BE84" rx="3" ry="3" style="stroke:#038048;stroke-width:1.0;"/><text fill="#000000" font-family="sans-serif" font-size="14" lengthAdjust="spacing" textLength="149" x="27" y="777.3597">Node* getPrev() const</text><ellipse cx="18" cy="790.057" fill="#84BE84" rx="3" ry="3" style="stroke:#038048;stroke-width:1.0;"/><text fill="#000000" font-family="sans-serif" font-size="14" lengthAdjust="spacing" textLength="135" x="27" y="793.848">void setPrev(Node*)</text></g><!--class Iterator--><g id="elem_Iterator"><rect codeLine="44" fill="#F1F1F1" height="278.8359" id="Iterator" rx="2.5" ry="2.5" style="stroke:#181818;stroke-width:0.5;" width="296" x="354.5" y="546.69"/><ellipse cx="466.75" cy="562.69" fill="#ADD1B2" rx="11" ry="11" style="stroke:#181818;stroke-width:1.0;"/><path d="M469.2231,568.8331 Q468.6421,569.1319 468.0029,569.2813 Q467.3638,569.4307 466.6582,569.4307 Q464.1514,569.4307 462.8315,567.7789 Q461.5117,566.127 461.5117,563.0059 Q461.5117,559.8765 462.8315,558.2247 Q464.1514,556.5728 466.6582,556.5728 Q467.3638,556.5728 468.0112,556.7222 Q468.6587,556.8716 469.2231,557.1705 L469.2231,559.8931 Q468.5923,559.3121 467.9988,559.0423 Q467.4053,558.7725 466.7744,558.7725 Q465.4297,558.7725 464.7449,559.8392 Q464.0601,560.9058 464.0601,563.0059 Q464.0601,565.0977 464.7449,566.1644 Q465.4297,567.231 466.7744,567.231 Q467.4053,567.231 467.9988,566.9612 Q468.5923,566.6915 469.2231,566.1104 Z " fill="#000000"/><text fill="#000000" font-family="sans-serif" font-size="14" lengthAdjust="spacing" textLength="51" x="487.25" y="567.981">Iterator</text><rect fill="#FFFFFF" height="16.1328" style="stroke:#181818;stroke-width:1.0;stroke-dasharray:2.0,2.0;" width="10" x="643.5" y="543.69"/><text fill="#000000" font-family="sans-serif" font-size="12" font-style="italic" lengthAdjust="spacing" textLength="8" x="644.5" y="556.2916">T</text><line style="stroke:#181818;stroke-width:0.5;" x1="355.5" x2="649.5" y1="578.69" y2="578.69"/><rect fill="none" height="6" style="stroke:#C82930;stroke-width:1.0;" width="6" x="362.5" y="589.4341"/><text fill="#000000" font-family="sans-serif" font-size="14" lengthAdjust="spacing" textLength="97" x="374.5" y="596.2252">Node* current</text><rect fill="none" height="6" style="stroke:#C82930;stroke-width:1.0;" width="6" x="362.5" y="605.9224"/><text fill="#000000" font-family="sans-serif" font-size="14" lengthAdjust="spacing" textLength="113" x="374.5" y="612.7134">LinkList&lt;T&gt;* list</text><line style="stroke:#181818;stroke-width:0.5;" x1="355.5" x2="649.5" y1="619.6666" y2="619.6666"/><ellipse cx="365.5" cy="633.4107" fill="#84BE84" rx="3" ry="3" style="stroke:#038048;stroke-width:1.0;"/><text fill="#000000" font-family="sans-serif" font-size="14" lengthAdjust="spacing" textLength="170" x="374.5" y="637.2017">Iterator(Node*, LinkList*)</text><ellipse cx="365.5" cy="649.899" fill="#84BE84" rx="3" ry="3" style="stroke:#038048;stroke-width:1.0;"/><text fill="#000000" font-family="sans-serif" font-size="14" lengthAdjust="spacing" textLength="141" x="374.5" y="653.69">T&amp; operator*() const</text><ellipse cx="365.5" cy="666.3873" fill="#84BE84" rx="3" ry="3" style="stroke:#038048;stroke-width:1.0;"/><text fill="#000000" font-family="sans-serif" font-size="14" lengthAdjust="spacing" textLength="157" x="374.5" y="670.1783">Iterator&amp; operator++()</text><ellipse cx="365.5" cy="682.8755" fill="#84BE84" rx="3" ry="3" style="stroke:#038048;stroke-width:1.0;"/><text fill="#000000" font-family="sans-serif" font-size="14" lengthAdjust="spacing" textLength="165" x="374.5" y="686.6666">Iterator operator++(int)</text><ellipse cx="365.5" cy="699.3638" fill="#84BE84" rx="3" ry="3" style="stroke:#038048;stroke-width:1.0;"/><text fill="#000000" font-family="sans-serif" font-size="14" lengthAdjust="spacing" textLength="151" x="374.5" y="703.1548">Iterator&amp; operator--()</text><ellipse cx="365.5" cy="715.8521" fill="#84BE84" rx="3" ry="3" style="stroke:#038048;stroke-width:1.0;"/><text fill="#000000" font-family="sans-serif" font-size="14" lengthAdjust="spacing" textLength="159" x="374.5" y="719.6431">Iterator operator--(int)</text><ellipse cx="365.5" cy="732.3404" fill="#84BE84" rx="3" ry="3" style="stroke:#038048;stroke-width:1.0;"/><text fill="#000000" font-family="sans-serif" font-size="14" lengthAdjust="spacing" textLength="270" x="374.5" y="736.1314">bool operator==(const Iterator&amp;) const</text><ellipse cx="365.5" cy="748.8287" fill="#84BE84" rx="3" ry="3" style="stroke:#038048;stroke-width:1.0;"/><text fill="#000000" font-family="sans-serif" font-size="14" lengthAdjust="spacing" textLength="263" x="374.5" y="752.6197">bool operator!=(const Iterator&amp;) const</text><ellipse cx="365.5" cy="765.317" fill="#84BE84" rx="3" ry="3" style="stroke:#038048;stroke-width:1.0;"/><text fill="#000000" font-family="sans-serif" font-size="14" lengthAdjust="spacing" textLength="133" x="374.5" y="769.108">bool Add(const T&amp;)</text><ellipse cx="365.5" cy="781.8052" fill="#84BE84" rx="3" ry="3" style="stroke:#038048;stroke-width:1.0;"/><text fill="#000000" font-family="sans-serif" font-size="14" lengthAdjust="spacing" textLength="88" x="374.5" y="785.5963">bool Delete()</text><ellipse cx="365.5" cy="798.2935" fill="#84BE84" rx="3" ry="3" style="stroke:#038048;stroke-width:1.0;"/><text fill="#000000" font-family="sans-serif" font-size="14" lengthAdjust="spacing" textLength="151" x="374.5" y="802.0845">bool Modify(const T&amp;)</text><ellipse cx="365.5" cy="814.7818" fill="#84BE84" rx="3" ry="3" style="stroke:#038048;stroke-width:1.0;"/><text fill="#000000" font-family="sans-serif" font-size="14" lengthAdjust="spacing" textLength="155" x="374.5" y="818.5728">Iterator Find(const T&amp;)</text></g><!--class ConstIterator--><g id="elem_ConstIterator"><rect codeLine="61" fill="#F1F1F1" height="196.3945" id="ConstIterator" rx="2.5" ry="2.5" style="stroke:#181818;stroke-width:0.5;" width="336" x="685.5" y="587.91"/><ellipse cx="797.75" cy="603.91" fill="#ADD1B2" rx="11" ry="11" style="stroke:#181818;stroke-width:1.0;"/><path d="M800.2231,610.0531 Q799.6421,610.3519 799.0029,610.5013 Q798.3638,610.6507 797.6582,610.6507 Q795.1514,610.6507 793.8315,608.9989 Q792.5117,607.347 792.5117,604.2259 Q792.5117,601.0965 793.8315,599.4447 Q795.1514,597.7928 797.6582,597.7928 Q798.3638,597.7928 799.0112,597.9422 Q799.6587,598.0916 800.2231,598.3905 L800.2231,601.1131 Q799.5923,600.5321 798.9988,600.2623 Q798.4053,599.9925 797.7744,599.9925 Q796.4297,599.9925 795.7449,601.0592 Q795.0601,602.1258 795.0601,604.2259 Q795.0601,606.3177 795.7449,607.3844 Q796.4297,608.451 797.7744,608.451 Q798.4053,608.451 798.9988,608.1812 Q799.5923,607.9115 800.2231,607.3304 Z " fill="#000000"/><text fill="#000000" font-family="sans-serif" font-size="14" lengthAdjust="spacing" textLength="91" x="818.25" y="609.201">ConstIterator</text><rect fill="#FFFFFF" height="16.1328" style="stroke:#181818;stroke-width:1.0;stroke-dasharray:2.0,2.0;" width="10" x="1014.5" y="584.91"/><text fill="#000000" font-family="sans-serif" font-size="12" font-style="italic" lengthAdjust="spacing" textLength="8" x="1015.5" y="597.5116">T</text><line style="stroke:#181818;stroke-width:0.5;" x1="686.5" x2="1020.5" y1="619.91" y2="619.91"/><rect fill="none" height="6" style="stroke:#C82930;stroke-width:1.0;" width="6" x="693.5" y="630.6541"/><text fill="#000000" font-family="sans-serif" font-size="14" lengthAdjust="spacing" textLength="138" x="705.5" y="637.4452">const Node* current</text><line style="stroke:#181818;stroke-width:0.5;" x1="686.5" x2="1020.5" y1="644.3983" y2="644.3983"/><ellipse cx="696.5" cy="658.1424" fill="#84BE84" rx="3" ry="3" style="stroke:#038048;stroke-width:1.0;"/><text fill="#000000" font-family="sans-serif" font-size="14" lengthAdjust="spacing" textLength="185" x="705.5" y="661.9334">ConstIterator(const Node*)</text><ellipse cx="696.5" cy="674.6307" fill="#84BE84" rx="3" ry="3" style="stroke:#038048;stroke-width:1.0;"/><text fill="#000000" font-family="sans-serif" font-size="14" lengthAdjust="spacing" textLength="182" x="705.5" y="678.4217">const T&amp; operator*() const</text><ellipse cx="696.5" cy="691.119" fill="#84BE84" rx="3" ry="3" style="stroke:#038048;stroke-width:1.0;"/><text fill="#000000" font-family="sans-serif" font-size="14" lengthAdjust="spacing" textLength="197" x="705.5" y="694.91">ConstIterator&amp; operator++()</text><ellipse cx="696.5" cy="707.6073" fill="#84BE84" rx="3" ry="3" style="stroke:#038048;stroke-width:1.0;"/><text fill="#000000" font-family="sans-serif" font-size="14" lengthAdjust="spacing" textLength="205" x="705.5" y="711.3983">ConstIterator operator++(int)</text><ellipse cx="696.5" cy="724.0955" fill="#84BE84" rx="3" ry="3" style="stroke:#038048;stroke-width:1.0;"/><text fill="#000000" font-family="sans-serif" font-size="14" lengthAdjust="spacing" textLength="191" x="705.5" y="727.8866">ConstIterator&amp; operator--()</text><ellipse cx="696.5" cy="740.5838" fill="#84BE84" rx="3" ry="3" style="stroke:#038048;stroke-width:1.0;"/><text fill="#000000" font-family="sans-serif" font-size="14" lengthAdjust="spacing" textLength="199" x="705.5" y="744.3748">ConstIterator operator--(int)</text><ellipse cx="696.5" cy="757.0721" fill="#84BE84" rx="3" ry="3" style="stroke:#038048;stroke-width:1.0;"/><text fill="#000000" font-family="sans-serif" font-size="14" lengthAdjust="spacing" textLength="310" x="705.5" y="760.8631">bool operator==(const ConstIterator&amp;) const</text><ellipse cx="696.5" cy="773.5604" fill="#84BE84" rx="3" ry="3" style="stroke:#038048;stroke-width:1.0;"/><text fill="#000000" font-family="sans-serif" font-size="14" lengthAdjust="spacing" textLength="303" x="705.5" y="777.3514">bool operator!=(const ConstIterator&amp;) const</text></g><!--reverse link LinkList to Node--><g id="link_LinkList_Node"><path codeLine="73" d="M310.2538,496.4631 C287.5638,525.6431 272.6,544.87 252.29,570.98 " fill="none" id="LinkList-backto-Node" style="stroke:#181818;stroke-width:1.0;"/><polygon fill="#181818" points="317.62,486.99,310.7792,489.2712,310.2538,496.4631,317.0946,494.1819,317.62,486.99" style="stroke:#181818;stroke-width:1.0;"/></g><!--reverse link LinkList to Iterator--><g id="link_LinkList_Iterator"><path codeLine="74" d="M502.5,498.99 C502.5,519.21 502.5,527.19 502.5,546.25 " fill="none" id="LinkList-backto-Iterator" style="stroke:#181818;stroke-width:1.0;"/><polygon fill="#181818" points="502.5,486.99,498.5,492.99,502.5,498.99,506.5,492.99,502.5,486.99" style="stroke:#181818;stroke-width:1.0;"/></g><!--reverse link LinkList to ConstIterator--><g id="link_LinkList_ConstIterator"><path codeLine="75" d="M701.4468,496.3359 C729.9968,531.7859 750.46,557.19 774.83,587.44 " fill="none" id="LinkList-backto-ConstIterator" style="stroke:#181818;stroke-width:1.0;"/><polygon fill="#181818" points="693.92,486.99,694.5681,494.1719,701.4468,496.3359,700.7987,489.154,693.92,486.99" style="stroke:#181818;stroke-width:1.0;"/></g><!--SRC=[XLFBRi8m4Bpp5TiBIWBv0GILAcYbIXHno0-4s52hmOuSWq1L- -tr0pknCStDdfrPhtTsgxfiMrWJ-hKchPWNp_0z0iWt3E4CFd69kfieIQrkX0ges8aAUPbOPP9wjuhHLa0nrkXl0Djh67NuE0NAyAN2ZV0OOs0DvgLWVF5_gZxnOTOp8mYg6fVS5A_-TS1YgRwMfA0VKFYEiHf8-tfin3M6NsHoZBel1umFXiZ-wi9Jy7gZAIy89VVe2jTOO5FRkp3VWHq-41fWcA80uJ4QTxobUilXrOtSrHt4jUvHT40SQ7NFjvpu7Tvp8ddG2ZIRiLPmN1ux1-Vpn0lO1lQi_ncDAZt7Qb3T31U0Ib5syzjmVEvk55_qs-gM55Cmw0BegQuRmUy0Cs2QhO-5cfMLVE3kU-qDBrARFrFSZNmmnjMuPldyhImtnjVuZUy-RliTB71ruj9r9SzxAvv1JKnEApFvfgwdffIYCo7hLs9LNNWo2MQj5v1Uft5LdZzGoO1LwKrmospNtkKAbyqodmQPmpiNsrw_tZT2-qcS6zuAE4iCCJJ6tvUaHz9lsUnn9ppjlHt-AaOyUQ2tniJrW-xuMGSjYjDbC-qqGfRdkYK-OYK-wcNx0m00]--></g></svg>