<?xml version="1.0" encoding="us-ascii" standalone="no"?><svg xmlns="http://www.w3.org/2000/svg" xmlns:xlink="http://www.w3.org/1999/xlink" contentStyleType="text/css" height="734px" preserveAspectRatio="none" style="width:1599px;height:734px;background:#FFFFFF;" version="1.1" viewBox="0 0 1599 734" width="1599px" zoomAndPan="magnify"><defs/><g><!--class LinkList--><g id="elem_LinkList"><rect codeLine="2" fill="#F1F1F1" height="361.2773" id="LinkList" rx="2.5" ry="2.5" style="stroke:#181818;stroke-width:0.5;" width="366" x="615.5" y="10"/><ellipse cx="762.75" cy="26" fill="#ADD1B2" rx="11" ry="11" style="stroke:#181818;stroke-width:1.0;"/><path d="M765.2231,32.1431 Q764.6421,32.4419 764.0029,32.5913 Q763.3638,32.7407 762.6582,32.7407 Q760.1514,32.7407 758.8315,31.0889 Q757.5117,29.437 757.5117,26.3159 Q757.5117,23.1865 758.8315,21.5347 Q760.1514,19.8828 762.6582,19.8828 Q763.3638,19.8828 764.0112,20.0322 Q764.6587,20.1816 765.2231,20.4805 L765.2231,23.2031 Q764.5923,22.6221 763.9988,22.3523 Q763.4053,22.0825 762.7744,22.0825 Q761.4297,22.0825 760.7449,23.1492 Q760.0601,24.2158 760.0601,26.3159 Q760.0601,28.4077 760.7449,29.4744 Q761.4297,30.541 762.7744,30.541 Q763.4053,30.541 763.9988,30.2712 Q764.5923,30.0015 765.2231,29.4204 Z " fill="#000000"/><text fill="#000000" font-family="sans-serif" font-size="14" lengthAdjust="spacing" textLength="51" x="783.25" y="31.291">LinkList</text><rect fill="#FFFFFF" height="16.1328" style="stroke:#181818;stroke-width:1.0;stroke-dasharray:2.0,2.0;" width="10" x="974.5" y="7"/><text fill="#000000" font-family="sans-serif" font-size="12" font-style="italic" lengthAdjust="spacing" textLength="8" x="975.5" y="19.6016">T</text><line style="stroke:#181818;stroke-width:0.5;" x1="616.5" x2="980.5" y1="42" y2="42"/><rect fill="none" height="6" style="stroke:#C82930;stroke-width:1.0;" width="6" x="623.5" y="52.7441"/><text fill="#000000" font-family="sans-serif" font-size="14" lengthAdjust="spacing" textLength="81" x="635.5" y="59.5352">Node* head</text><rect fill="none" height="6" style="stroke:#C82930;stroke-width:1.0;" width="6" x="623.5" y="69.2324"/><text fill="#000000" font-family="sans-serif" font-size="14" lengthAdjust="spacing" textLength="68" x="635.5" y="76.0234">Node* tail</text><rect fill="none" height="6" style="stroke:#C82930;stroke-width:1.0;" width="6" x="623.5" y="85.7207"/><text fill="#000000" font-family="sans-serif" font-size="14" lengthAdjust="spacing" textLength="61" x="635.5" y="92.5117">int count</text><line style="stroke:#181818;stroke-width:0.5;" x1="616.5" x2="980.5" y1="99.4648" y2="99.4648"/><ellipse cx="626.5" cy="113.209" fill="#84BE84" rx="3" ry="3" style="stroke:#038048;stroke-width:1.0;"/><text fill="#000000" font-family="sans-serif" font-size="14" lengthAdjust="spacing" textLength="61" x="635.5" y="117">LinkList()</text><ellipse cx="626.5" cy="129.6973" fill="#84BE84" rx="3" ry="3" style="stroke:#038048;stroke-width:1.0;"/><text fill="#000000" font-family="sans-serif" font-size="14" lengthAdjust="spacing" textLength="209" x="635.5" y="133.4883">explicit LinkList(const T&amp; data)</text><ellipse cx="626.5" cy="146.1855" fill="#84BE84" rx="3" ry="3" style="stroke:#038048;stroke-width:1.0;"/><text fill="#000000" font-family="sans-serif" font-size="14" lengthAdjust="spacing" textLength="70" x="635.5" y="149.9766">~LinkList()</text><ellipse cx="626.5" cy="162.6738" fill="#84BE84" rx="3" ry="3" style="stroke:#038048;stroke-width:1.0;"/><text fill="#000000" font-family="sans-serif" font-size="14" lengthAdjust="spacing" textLength="137" x="635.5" y="166.4648">int getCount() const</text><ellipse cx="626.5" cy="179.1621" fill="#84BE84" rx="3" ry="3" style="stroke:#038048;stroke-width:1.0;"/><text fill="#000000" font-family="sans-serif" font-size="14" lengthAdjust="spacing" textLength="139" x="635.5" y="182.9531">bool isEmpty() const</text><ellipse cx="626.5" cy="195.6504" fill="#84BE84" rx="3" ry="3" style="stroke:#038048;stroke-width:1.0;"/><text fill="#000000" font-family="sans-serif" font-size="14" lengthAdjust="spacing" textLength="241" x="635.5" y="199.4414">bool isExisted(const T&amp; data) const</text><ellipse cx="626.5" cy="212.1387" fill="#84BE84" rx="3" ry="3" style="stroke:#038048;stroke-width:1.0;"/><text fill="#000000" font-family="sans-serif" font-size="14" lengthAdjust="spacing" textLength="340" x="635.5" y="215.9297">bool modify(const T&amp; oldData, const T&amp; newData)</text><ellipse cx="626.5" cy="228.627" fill="#84BE84" rx="3" ry="3" style="stroke:#038048;stroke-width:1.0;"/><text fill="#000000" font-family="sans-serif" font-size="14" lengthAdjust="spacing" textLength="204" x="635.5" y="232.418">bool pushBack(const T&amp; data)</text><ellipse cx="626.5" cy="245.1152" fill="#84BE84" rx="3" ry="3" style="stroke:#038048;stroke-width:1.0;"/><text fill="#000000" font-family="sans-serif" font-size="14" lengthAdjust="spacing" textLength="210" x="635.5" y="248.9063">bool pushFront(const T&amp; data)</text><ellipse cx="626.5" cy="261.6035" fill="#84BE84" rx="3" ry="3" style="stroke:#038048;stroke-width:1.0;"/><text fill="#000000" font-family="sans-serif" font-size="14" lengthAdjust="spacing" textLength="103" x="635.5" y="265.3945">bool popBack()</text><ellipse cx="626.5" cy="278.0918" fill="#84BE84" rx="3" ry="3" style="stroke:#038048;stroke-width:1.0;"/><text fill="#000000" font-family="sans-serif" font-size="14" lengthAdjust="spacing" textLength="109" x="635.5" y="281.8828">bool popFront()</text><ellipse cx="626.5" cy="294.5801" fill="#84BE84" rx="3" ry="3" style="stroke:#038048;stroke-width:1.0;"/><text fill="#000000" font-family="sans-serif" font-size="14" lengthAdjust="spacing" textLength="104" x="635.5" y="298.3711">Iterator begin()</text><ellipse cx="626.5" cy="311.0684" fill="#84BE84" rx="3" ry="3" style="stroke:#038048;stroke-width:1.0;"/><text fill="#000000" font-family="sans-serif" font-size="14" lengthAdjust="spacing" textLength="91" x="635.5" y="314.8594">Iterator end()</text><ellipse cx="626.5" cy="327.5566" fill="#84BE84" rx="3" ry="3" style="stroke:#038048;stroke-width:1.0;"/><text fill="#000000" font-family="sans-serif" font-size="14" lengthAdjust="spacing" textLength="192" x="635.5" y="331.3477">ConstIterator cbegin() const</text><ellipse cx="626.5" cy="344.0449" fill="#84BE84" rx="3" ry="3" style="stroke:#038048;stroke-width:1.0;"/><text fill="#000000" font-family="sans-serif" font-size="14" lengthAdjust="spacing" textLength="179" x="635.5" y="347.8359">ConstIterator cend() const</text><ellipse cx="626.5" cy="360.5332" fill="#84BE84" rx="3" ry="3" style="stroke:#038048;stroke-width:1.0;"/><text fill="#000000" font-family="sans-serif" font-size="14" lengthAdjust="spacing" textLength="117" x="635.5" y="364.3242">void print() const</text></g><!--class Node--><g id="elem_Node"><rect codeLine="25" fill="#F1F1F1" height="245.8594" id="Node" rx="2.5" ry="2.5" style="stroke:#181818;stroke-width:0.5;" width="416" x="590.5" y="464.76"/><ellipse cx="776.25" cy="480.76" fill="#ADD1B2" rx="11" ry="11" style="stroke:#181818;stroke-width:1.0;"/><path d="M778.7231,486.9031 Q778.1421,487.2019 777.5029,487.3513 Q776.8638,487.5007 776.1582,487.5007 Q773.6514,487.5007 772.3315,485.8489 Q771.0117,484.197 771.0117,481.0759 Q771.0117,477.9465 772.3315,476.2947 Q773.6514,474.6428 776.1582,474.6428 Q776.8638,474.6428 777.5112,474.7922 Q778.1587,474.9416 778.7231,475.2405 L778.7231,477.9631 Q778.0923,477.3821 777.4988,477.1123 Q776.9053,476.8425 776.2744,476.8425 Q774.9297,476.8425 774.2449,477.9092 Q773.5601,478.9758 773.5601,481.0759 Q773.5601,483.1677 774.2449,484.2344 Q774.9297,485.301 776.2744,485.301 Q776.9053,485.301 777.4988,485.0312 Q778.0923,484.7615 778.7231,484.1804 Z " fill="#000000"/><text fill="#000000" font-family="sans-serif" font-size="14" lengthAdjust="spacing" textLength="36" x="796.75" y="486.051">Node</text><line style="stroke:#181818;stroke-width:0.5;" x1="591.5" x2="1005.5" y1="496.76" y2="496.76"/><rect fill="none" height="6" style="stroke:#C82930;stroke-width:1.0;" width="6" x="598.5" y="507.5041"/><text fill="#000000" font-family="sans-serif" font-size="14" lengthAdjust="spacing" textLength="43" x="610.5" y="514.2952">T data</text><rect fill="none" height="6" style="stroke:#C82930;stroke-width:1.0;" width="6" x="598.5" y="523.9924"/><text fill="#000000" font-family="sans-serif" font-size="14" lengthAdjust="spacing" textLength="77" x="610.5" y="530.7834">Node* prev</text><rect fill="none" height="6" style="stroke:#C82930;stroke-width:1.0;" width="6" x="598.5" y="540.4807"/><text fill="#000000" font-family="sans-serif" font-size="14" lengthAdjust="spacing" textLength="78" x="610.5" y="547.2717">Node* next</text><line style="stroke:#181818;stroke-width:0.5;" x1="591.5" x2="1005.5" y1="554.2248" y2="554.2248"/><ellipse cx="601.5" cy="567.969" fill="#84BE84" rx="3" ry="3" style="stroke:#038048;stroke-width:1.0;"/><text fill="#000000" font-family="sans-serif" font-size="14" lengthAdjust="spacing" textLength="390" x="610.5" y="571.76">Node(T data, Node* prev = nullptr, Node* next = nullptr)</text><ellipse cx="601.5" cy="584.4573" fill="#84BE84" rx="3" ry="3" style="stroke:#038048;stroke-width:1.0;"/><text fill="#000000" font-family="sans-serif" font-size="14" lengthAdjust="spacing" textLength="86" x="610.5" y="588.2483">T&amp; getData()</text><ellipse cx="601.5" cy="600.9455" fill="#84BE84" rx="3" ry="3" style="stroke:#038048;stroke-width:1.0;"/><text fill="#000000" font-family="sans-serif" font-size="14" lengthAdjust="spacing" textLength="168" x="610.5" y="604.7366">const T&amp; getData() const</text><ellipse cx="601.5" cy="617.4338" fill="#84BE84" rx="3" ry="3" style="stroke:#038048;stroke-width:1.0;"/><text fill="#000000" font-family="sans-serif" font-size="14" lengthAdjust="spacing" textLength="111" x="610.5" y="621.2248">Node* getNext()</text><ellipse cx="601.5" cy="633.9221" fill="#84BE84" rx="3" ry="3" style="stroke:#038048;stroke-width:1.0;"/><text fill="#000000" font-family="sans-serif" font-size="14" lengthAdjust="spacing" textLength="193" x="610.5" y="637.7131">const Node* getNext() const</text><ellipse cx="601.5" cy="650.4104" fill="#84BE84" rx="3" ry="3" style="stroke:#038048;stroke-width:1.0;"/><text fill="#000000" font-family="sans-serif" font-size="14" lengthAdjust="spacing" textLength="202" x="610.5" y="654.2014">void setNext(Node* newNext)</text><ellipse cx="601.5" cy="666.8987" fill="#84BE84" rx="3" ry="3" style="stroke:#038048;stroke-width:1.0;"/><text fill="#000000" font-family="sans-serif" font-size="14" lengthAdjust="spacing" textLength="108" x="610.5" y="670.6897">Node* getPrev()</text><ellipse cx="601.5" cy="683.387" fill="#84BE84" rx="3" ry="3" style="stroke:#038048;stroke-width:1.0;"/><text fill="#000000" font-family="sans-serif" font-size="14" lengthAdjust="spacing" textLength="190" x="610.5" y="687.178">const Node* getPrev() const</text><ellipse cx="601.5" cy="699.8752" fill="#84BE84" rx="3" ry="3" style="stroke:#038048;stroke-width:1.0;"/><text fill="#000000" font-family="sans-serif" font-size="14" lengthAdjust="spacing" textLength="196" x="610.5" y="703.6663">void setPrev(Node* newPrev)</text></g><!--class Iterator--><g id="elem_Iterator"><rect codeLine="41" fill="#F1F1F1" height="278.8359" id="Iterator" rx="2.5" ry="2.5" style="stroke:#181818;stroke-width:0.5;" width="337" x="7" y="448.27"/><ellipse cx="145.75" cy="464.27" fill="#ADD1B2" rx="11" ry="11" style="stroke:#181818;stroke-width:1.0;"/><path d="M148.2231,470.4131 Q147.6421,470.7119 147.0029,470.8613 Q146.3638,471.0107 145.6582,471.0107 Q143.1514,471.0107 141.8315,469.3589 Q140.5117,467.707 140.5117,464.5859 Q140.5117,461.4565 141.8315,459.8047 Q143.1514,458.1528 145.6582,458.1528 Q146.3638,458.1528 147.0112,458.3022 Q147.6587,458.4516 148.2231,458.7505 L148.2231,461.4731 Q147.5923,460.8921 146.9988,460.6223 Q146.4053,460.3525 145.7744,460.3525 Q144.4297,460.3525 143.7449,461.4192 Q143.0601,462.4858 143.0601,464.5859 Q143.0601,466.6777 143.7449,467.7444 Q144.4297,468.811 145.7744,468.811 Q146.4053,468.811 146.9988,468.5412 Q147.5923,468.2715 148.2231,467.6904 Z " fill="#000000"/><text fill="#000000" font-family="sans-serif" font-size="14" lengthAdjust="spacing" textLength="51" x="166.25" y="469.561">Iterator</text><line style="stroke:#181818;stroke-width:0.5;" x1="8" x2="343" y1="480.27" y2="480.27"/><rect fill="none" height="6" style="stroke:#C82930;stroke-width:1.0;" width="6" x="15" y="491.0141"/><text fill="#000000" font-family="sans-serif" font-size="14" lengthAdjust="spacing" textLength="97" x="27" y="497.8052">Node* current</text><rect fill="none" height="6" style="stroke:#C82930;stroke-width:1.0;" width="6" x="15" y="507.5024"/><text fill="#000000" font-family="sans-serif" font-size="14" lengthAdjust="spacing" textLength="113" x="27" y="514.2934">LinkList&lt;T&gt;* list</text><line style="stroke:#181818;stroke-width:0.5;" x1="8" x2="343" y1="521.2466" y2="521.2466"/><ellipse cx="18" cy="534.9907" fill="#84BE84" rx="3" ry="3" style="stroke:#038048;stroke-width:1.0;"/><text fill="#000000" font-family="sans-serif" font-size="14" lengthAdjust="spacing" textLength="264" x="27" y="538.7817">Iterator(Node* node, LinkList&lt;T&gt;* list)</text><ellipse cx="18" cy="551.479" fill="#84BE84" rx="3" ry="3" style="stroke:#038048;stroke-width:1.0;"/><text fill="#000000" font-family="sans-serif" font-size="14" lengthAdjust="spacing" textLength="141" x="27" y="555.27">T&amp; operator*() const</text><ellipse cx="18" cy="567.9673" fill="#84BE84" rx="3" ry="3" style="stroke:#038048;stroke-width:1.0;"/><text fill="#000000" font-family="sans-serif" font-size="14" lengthAdjust="spacing" textLength="157" x="27" y="571.7583">Iterator&amp; operator++()</text><ellipse cx="18" cy="584.4555" fill="#84BE84" rx="3" ry="3" style="stroke:#038048;stroke-width:1.0;"/><text fill="#000000" font-family="sans-serif" font-size="14" lengthAdjust="spacing" textLength="165" x="27" y="588.2466">Iterator operator++(int)</text><ellipse cx="18" cy="600.9438" fill="#84BE84" rx="3" ry="3" style="stroke:#038048;stroke-width:1.0;"/><text fill="#000000" font-family="sans-serif" font-size="14" lengthAdjust="spacing" textLength="151" x="27" y="604.7348">Iterator&amp; operator--()</text><ellipse cx="18" cy="617.4321" fill="#84BE84" rx="3" ry="3" style="stroke:#038048;stroke-width:1.0;"/><text fill="#000000" font-family="sans-serif" font-size="14" lengthAdjust="spacing" textLength="159" x="27" y="621.2231">Iterator operator--(int)</text><ellipse cx="18" cy="633.9204" fill="#84BE84" rx="3" ry="3" style="stroke:#038048;stroke-width:1.0;"/><text fill="#000000" font-family="sans-serif" font-size="14" lengthAdjust="spacing" textLength="311" x="27" y="637.7114">bool operator==(const Iterator&amp; other) const</text><ellipse cx="18" cy="650.4087" fill="#84BE84" rx="3" ry="3" style="stroke:#038048;stroke-width:1.0;"/><text fill="#000000" font-family="sans-serif" font-size="14" lengthAdjust="spacing" textLength="304" x="27" y="654.1997">bool operator!=(const Iterator&amp; other) const</text><ellipse cx="18" cy="666.897" fill="#84BE84" rx="3" ry="3" style="stroke:#038048;stroke-width:1.0;"/><text fill="#000000" font-family="sans-serif" font-size="14" lengthAdjust="spacing" textLength="212" x="27" y="670.688">bool insertAfter(const T&amp; data)</text><ellipse cx="18" cy="683.3852" fill="#84BE84" rx="3" ry="3" style="stroke:#038048;stroke-width:1.0;"/><text fill="#000000" font-family="sans-serif" font-size="14" lengthAdjust="spacing" textLength="119" x="27" y="687.1763">bool deleteNext()</text><ellipse cx="18" cy="699.8735" fill="#84BE84" rx="3" ry="3" style="stroke:#038048;stroke-width:1.0;"/><text fill="#000000" font-family="sans-serif" font-size="14" lengthAdjust="spacing" textLength="215" x="27" y="703.6645">bool modify(const T&amp; newData)</text><ellipse cx="18" cy="716.3618" fill="#84BE84" rx="3" ry="3" style="stroke:#038048;stroke-width:1.0;"/><text fill="#000000" font-family="sans-serif" font-size="14" lengthAdjust="spacing" textLength="186" x="27" y="720.1528">Iterator find(const T&amp; data)</text></g><!--class ConstIterator--><g id="elem_ConstIterator"><rect codeLine="59" fill="#F1F1F1" height="196.3945" id="ConstIterator" rx="2.5" ry="2.5" style="stroke:#181818;stroke-width:0.5;" width="377" x="1215" y="489.49"/><ellipse cx="1353.75" cy="505.49" fill="#ADD1B2" rx="11" ry="11" style="stroke:#181818;stroke-width:1.0;"/><path d="M1356.2231,511.6331 Q1355.6421,511.9319 1355.0029,512.0813 Q1354.3638,512.2307 1353.6582,512.2307 Q1351.1514,512.2307 1349.8315,510.5789 Q1348.5117,508.927 1348.5117,505.8059 Q1348.5117,502.6765 1349.8315,501.0247 Q1351.1514,499.3728 1353.6582,499.3728 Q1354.3638,499.3728 1355.0112,499.5222 Q1355.6587,499.6716 1356.2231,499.9705 L1356.2231,502.6931 Q1355.5923,502.1121 1354.9988,501.8423 Q1354.4053,501.5725 1353.7744,501.5725 Q1352.4297,501.5725 1351.7449,502.6392 Q1351.0601,503.7058 1351.0601,505.8059 Q1351.0601,507.8977 1351.7449,508.9644 Q1352.4297,510.031 1353.7744,510.031 Q1354.4053,510.031 1354.9988,509.7612 Q1355.5923,509.4915 1356.2231,508.9104 Z " fill="#000000"/><text fill="#000000" font-family="sans-serif" font-size="14" lengthAdjust="spacing" textLength="91" x="1374.25" y="510.781">ConstIterator</text><line style="stroke:#181818;stroke-width:0.5;" x1="1216" x2="1591" y1="521.49" y2="521.49"/><rect fill="none" height="6" style="stroke:#C82930;stroke-width:1.0;" width="6" x="1223" y="532.2341"/><text fill="#000000" font-family="sans-serif" font-size="14" lengthAdjust="spacing" textLength="138" x="1235" y="539.0252">const Node* current</text><line style="stroke:#181818;stroke-width:0.5;" x1="1216" x2="1591" y1="545.9783" y2="545.9783"/><ellipse cx="1226" cy="559.7224" fill="#84BE84" rx="3" ry="3" style="stroke:#038048;stroke-width:1.0;"/><text fill="#000000" font-family="sans-serif" font-size="14" lengthAdjust="spacing" textLength="224" x="1235" y="563.5134">ConstIterator(const Node* node)</text><ellipse cx="1226" cy="576.2107" fill="#84BE84" rx="3" ry="3" style="stroke:#038048;stroke-width:1.0;"/><text fill="#000000" font-family="sans-serif" font-size="14" lengthAdjust="spacing" textLength="182" x="1235" y="580.0017">const T&amp; operator*() const</text><ellipse cx="1226" cy="592.699" fill="#84BE84" rx="3" ry="3" style="stroke:#038048;stroke-width:1.0;"/><text fill="#000000" font-family="sans-serif" font-size="14" lengthAdjust="spacing" textLength="197" x="1235" y="596.49">ConstIterator&amp; operator++()</text><ellipse cx="1226" cy="609.1873" fill="#84BE84" rx="3" ry="3" style="stroke:#038048;stroke-width:1.0;"/><text fill="#000000" font-family="sans-serif" font-size="14" lengthAdjust="spacing" textLength="205" x="1235" y="612.9783">ConstIterator operator++(int)</text><ellipse cx="1226" cy="625.6755" fill="#84BE84" rx="3" ry="3" style="stroke:#038048;stroke-width:1.0;"/><text fill="#000000" font-family="sans-serif" font-size="14" lengthAdjust="spacing" textLength="191" x="1235" y="629.4666">ConstIterator&amp; operator--()</text><ellipse cx="1226" cy="642.1638" fill="#84BE84" rx="3" ry="3" style="stroke:#038048;stroke-width:1.0;"/><text fill="#000000" font-family="sans-serif" font-size="14" lengthAdjust="spacing" textLength="199" x="1235" y="645.9548">ConstIterator operator--(int)</text><ellipse cx="1226" cy="658.6521" fill="#84BE84" rx="3" ry="3" style="stroke:#038048;stroke-width:1.0;"/><text fill="#000000" font-family="sans-serif" font-size="14" lengthAdjust="spacing" textLength="351" x="1235" y="662.4431">bool operator==(const ConstIterator&amp; other) const</text><ellipse cx="1226" cy="675.1404" fill="#84BE84" rx="3" ry="3" style="stroke:#038048;stroke-width:1.0;"/><text fill="#000000" font-family="sans-serif" font-size="14" lengthAdjust="spacing" textLength="344" x="1235" y="678.9314">bool operator!=(const ConstIterator&amp; other) const</text></g><path d="M1016.5,102.36 L1016.5,111.0153 L839.5,227.127 L1016.5,119.0153 L1016.5,127.6705 A0,0 0 0 0 1016.5,127.6705 L1154.5,127.6705 A0,0 0 0 0 1154.5,127.6705 L1154.5,112.36 L1144.5,102.36 L1016.5,102.36 A0,0 0 0 0 1016.5,102.36 " fill="#FEFFDD" style="stroke:#181818;stroke-width:0.5;"/><path d="M1144.5,102.36 L1144.5,112.36 L1154.5,112.36 L1144.5,102.36 " fill="#FEFFDD" style="stroke:#181818;stroke-width:0.5;"/><text fill="#000000" font-family="sans-serif" font-size="13" lengthAdjust="spacing" textLength="117" x="1022.5" y="119.9284">&#22312;&#38142;&#34920;&#23614;&#37096;&#28155;&#21152;&#20803;&#32032;</text><path d="M1016.5,137.6705 L1016.5,146.3258 L845.5,243.6152 L1016.5,154.3258 L1016.5,162.9811 A0,0 0 0 0 1016.5,162.9811 L1154.5,162.9811 A0,0 0 0 0 1154.5,162.9811 L1154.5,147.6705 L1144.5,137.6705 L1016.5,137.6705 A0,0 0 0 0 1016.5,137.6705 " fill="#FEFFDD" style="stroke:#181818;stroke-width:0.5;"/><path d="M1144.5,137.6705 L1144.5,147.6705 L1154.5,147.6705 L1144.5,137.6705 " fill="#FEFFDD" style="stroke:#181818;stroke-width:0.5;"/><text fill="#000000" font-family="sans-serif" font-size="13" lengthAdjust="spacing" textLength="117" x="1022.5" y="155.2389">&#22312;&#38142;&#34920;&#22836;&#37096;&#25554;&#20837;&#20803;&#32032;</text><path d="M1016.5,172.9811 L1016.5,181.6364 L738.5,260.1035 L1016.5,189.6364 L1016.5,198.2916 A0,0 0 0 0 1016.5,198.2916 L1141.5,198.2916 A0,0 0 0 0 1141.5,198.2916 L1141.5,182.9811 L1131.5,172.9811 L1016.5,172.9811 A0,0 0 0 0 1016.5,172.9811 " fill="#FEFFDD" style="stroke:#181818;stroke-width:0.5;"/><path d="M1131.5,172.9811 L1131.5,182.9811 L1141.5,182.9811 L1131.5,172.9811 " fill="#FEFFDD" style="stroke:#181818;stroke-width:0.5;"/><text fill="#000000" font-family="sans-serif" font-size="13" lengthAdjust="spacing" textLength="104" x="1022.5" y="190.5495">&#21024;&#38500;&#38142;&#34920;&#23614;&#37096;&#20803;&#32032;</text><path d="M1016.5,208.2916 L1016.5,216.9469 L744.5,276.5918 L1016.5,224.9469 L1016.5,233.6022 A0,0 0 0 0 1016.5,233.6022 L1141.5,233.6022 A0,0 0 0 0 1141.5,233.6022 L1141.5,218.2916 L1131.5,208.2916 L1016.5,208.2916 A0,0 0 0 0 1016.5,208.2916 " fill="#FEFFDD" style="stroke:#181818;stroke-width:0.5;"/><path d="M1131.5,208.2916 L1131.5,218.2916 L1141.5,218.2916 L1131.5,208.2916 " fill="#FEFFDD" style="stroke:#181818;stroke-width:0.5;"/><text fill="#000000" font-family="sans-serif" font-size="13" lengthAdjust="spacing" textLength="104" x="1022.5" y="225.86">&#21024;&#38500;&#38142;&#34920;&#22836;&#37096;&#20803;&#32032;</text><path d="M1016.5,243.6022 L1016.5,252.2575 L975.5,210.6387 L1016.5,260.2575 L1016.5,268.9127 A0,0 0 0 0 1016.5,268.9127 L1180.5,268.9127 A0,0 0 0 0 1180.5,268.9127 L1180.5,253.6022 L1170.5,243.6022 L1016.5,243.6022 A0,0 0 0 0 1016.5,243.6022 " fill="#FEFFDD" style="stroke:#181818;stroke-width:0.5;"/><path d="M1170.5,243.6022 L1170.5,253.6022 L1180.5,253.6022 L1170.5,243.6022 " fill="#FEFFDD" style="stroke:#181818;stroke-width:0.5;"/><text fill="#000000" font-family="sans-serif" font-size="13" lengthAdjust="spacing" textLength="143" x="1022.5" y="261.1705">&#20462;&#25913;&#38142;&#34920;&#20013;&#25351;&#23450;&#20540;&#30340;&#20803;&#32032;</text><path d="M379,552.38 L379,561.0353 L239,665.397 L379,569.0353 L379,577.6905 A0,0 0 0 0 379,577.6905 L543,577.6905 A0,0 0 0 0 543,577.6905 L543,562.38 L533,552.38 L379,552.38 A0,0 0 0 0 379,552.38 " fill="#FEFFDD" style="stroke:#181818;stroke-width:0.5;"/><path d="M533,552.38 L533,562.38 L543,562.38 L533,552.38 " fill="#FEFFDD" style="stroke:#181818;stroke-width:0.5;"/><text fill="#000000" font-family="sans-serif" font-size="13" lengthAdjust="spacing" textLength="143" x="385" y="569.9484">&#22312;&#24403;&#21069;&#33410;&#28857;&#21518;&#25554;&#20837;&#26032;&#20803;&#32032;</text><path d="M379,587.6905 L379,596.3458 L146,681.8852 L379,604.3458 L379,613.0011 A0,0 0 0 0 379,613.0011 L556,613.0011 A0,0 0 0 0 556,613.0011 L556,597.6905 L546,587.6905 L379,587.6905 A0,0 0 0 0 379,587.6905 " fill="#FEFFDD" style="stroke:#181818;stroke-width:0.5;"/><path d="M546,587.6905 L546,597.6905 L556,597.6905 L546,587.6905 " fill="#FEFFDD" style="stroke:#181818;stroke-width:0.5;"/><text fill="#000000" font-family="sans-serif" font-size="13" lengthAdjust="spacing" textLength="156" x="385" y="605.2589">&#21024;&#38500;&#24403;&#21069;&#33410;&#28857;&#30340;&#19979;&#19968;&#20010;&#33410;&#28857;</text><path d="M1041.5,570.04 L1041.5,578.6953 L696.5,582.9573 L1041.5,586.6953 L1041.5,595.3505 A0,0 0 0 0 1041.5,595.3505 L1179.5,595.3505 A0,0 0 0 0 1179.5,595.3505 L1179.5,580.04 L1169.5,570.04 L1041.5,570.04 A0,0 0 0 0 1041.5,570.04 " fill="#FEFFDD" style="stroke:#181818;stroke-width:0.5;"/><path d="M1169.5,570.04 L1169.5,580.04 L1179.5,580.04 L1169.5,570.04 " fill="#FEFFDD" style="stroke:#181818;stroke-width:0.5;"/><text fill="#000000" font-family="sans-serif" font-size="13" lengthAdjust="spacing" textLength="117" x="1047.5" y="587.6084">&#33719;&#21462;&#33410;&#28857;&#23384;&#20648;&#30340;&#25968;&#25454;</text><!--reverse link LinkList to Node--><g id="link_LinkList_Node"><path codeLine="72" d="M798.5,383.53 C798.5,415 798.5,435.07 798.5,464.51 " fill="none" id="LinkList-backto-Node" style="stroke:#181818;stroke-width:1.0;"/><polygon fill="#181818" points="798.5,371.53,794.5,377.53,798.5,383.53,802.5,377.53,798.5,371.53" style="stroke:#181818;stroke-width:1.0;"/><text fill="#000000" font-family="sans-serif" font-size="13" lengthAdjust="spacing" textLength="54" x="799.5" y="414.8384">contains</text></g><!--reverse link LinkList to Iterator--><g id="link_LinkList_Iterator"><path codeLine="73" d="M604.6632,299.4047 C525.4632,344.8747 442.9,394.31 361.5,448.27 C355.88,452 350.2,455.83 344.49,459.74 " fill="none" id="LinkList-backto-Iterator" style="stroke:#181818;stroke-width:1.0;"/><polygon fill="none" points="615.07,293.43,607.875,292.9484,604.6632,299.4047,611.8582,299.8863,615.07,293.43" style="stroke:#181818;stroke-width:1.0;"/><text fill="#000000" font-family="sans-serif" font-size="13" lengthAdjust="spacing" textLength="29" x="432.21" y="414.8384">uses</text></g><!--reverse link LinkList to ConstIterator--><g id="link_LinkList_ConstIterator"><path codeLine="74" d="M991.8052,367.2455 C997.3352,370.9555 992.93,367.86 998.5,371.27 C1079.32,420.88 1113.4,404.45 1197.5,448.27 C1220.71,460.37 1244.51,474.52 1267.3,489.07 " fill="none" id="LinkList-backto-ConstIterator" style="stroke:#181818;stroke-width:1.0;"/><polygon fill="none" points="981.84,360.56,984.5941,367.2245,991.8052,367.2455,989.0511,360.581,981.84,360.56" style="stroke:#181818;stroke-width:1.0;"/><text fill="#000000" font-family="sans-serif" font-size="13" lengthAdjust="spacing" textLength="29" x="1118.99" y="414.8384">uses</text></g><!--SRC=[bLNhJXD15Fw_Jp7-aRQqBx0H4mLDJ0Zn1o-mx4xfX6Lsiplb4gD1i28eOEGI9IPYWabZ0i6KX3O8lantMzx2cTsTsTbBQ-sF9dlE-Ruvb-_CZ07l_BZRsPf6U64QkQJtwrhHJSrr0RSyc7q8NYY0_YfWnZ9W2TIWPYGCH4DcP42O0DsgOn9yZmkMGZ4om1NRH3eYiKUti4l0x7rWQ4JZOQyoGCOy3yaa8oyKGO2AN7EMPGBaFbcqoUe0rmgbWaRgh6paecMWwceSPfd658qi0s71S7bAoZD0sNMtzbZJ5_9B4I5F7GkJOJ6M7R2aZI6EMvyHw6Z4Si0Sd4SuQuRO4CP9TfRmw14YKNOg940d0fOiP03RGLBNNohAMAGR9W3lRUDkenahXzc4P6Q3EXDoiHsub31WkC9FOuP2Y2bBuM02uBffsiGfIvZOoWkcRQKQOGCIFH3z5ev4UI4RzSrGmXGevSksnOrSFALbzbLCCp-d1GnY3dsvp85BCBElejnvFhEuxsAAoNNLwuu3euMio6jT0YOIft8mFv7-bxF1KfyjEmIKKkbpeZXYV3ohKib7bLKSYArK1cEfJy86sy9T4nFHdacCf0QTd9Nda7kZGn1seKCULMdWa7Kse0a9JCWgzuv9tIYYp2h2wGjBddzYSMCH9FUPAq5MdQo7rFuNv3WcWSmI3PfwWYPtzCd4ykS_W4KIGJxBA4f8SuygXs6uS1oDLl_r0VtljQuLlZ6WL0dt3wWibhwGs8sT5dMA8bHGTs7AcImpYc1ddMxwhQP_rF5RXzxsj_x6ZO8j0e63vciKMHKRgwhyKGgAyxusx_Pl-z-RtiKjlQlzgsjl-yHhRFGkJnHwvGD6eWob2XwX5DVf9UFQ- -GrVepE5Jvo8TExaxilft9Y_qCZPIJp14cDp1CkOy3I_NFk7tH2bcxxpF-mIHVDM_lTEtxp3pe-A5MLRWRUA-zctzlQwM-lzzOxtiVTi5t-qSN8dF4z8XKhiz84k-tttVPQj_qpj0naPOfKrUWb3EZwkrVUtb6KtjbdRxr9wVp32t_dF6Rv2m00]--></g></svg>