<?xml version="1.0" encoding="us-ascii" standalone="no"?><svg xmlns="http://www.w3.org/2000/svg" xmlns:xlink="http://www.w3.org/1999/xlink" contentStyleType="text/css" height="384px" preserveAspectRatio="none" style="width:434px;height:384px;background:#FFFFFF;" version="1.1" viewBox="0 0 434 384" width="434px" zoomAndPan="magnify"><defs/><g><!--class LibraryCache--><g id="elem_LibraryCache"><rect codeLine="1" fill="#F1F1F1" height="196.3945" id="LibraryCache" rx="2.5" ry="2.5" style="stroke:#181818;stroke-width:0.5;" width="379" x="27.5" y="7"/><ellipse cx="168.25" cy="23" fill="#ADD1B2" rx="11" ry="11" style="stroke:#181818;stroke-width:1.0;"/><path d="M170.7231,29.1431 Q170.1421,29.4419 169.5029,29.5913 Q168.8638,29.7407 168.1582,29.7407 Q165.6514,29.7407 164.3315,28.0889 Q163.0117,26.437 163.0117,23.3159 Q163.0117,20.1865 164.3315,18.5347 Q165.6514,16.8828 168.1582,16.8828 Q168.8638,16.8828 169.5112,17.0322 Q170.1587,17.1816 170.7231,17.4805 L170.7231,20.2031 Q170.0923,19.6221 169.4988,19.3523 Q168.9053,19.0825 168.2744,19.0825 Q166.9297,19.0825 166.2449,20.1492 Q165.5601,21.2158 165.5601,23.3159 Q165.5601,25.4077 166.2449,26.4744 Q166.9297,27.541 168.2744,27.541 Q168.9053,27.541 169.4988,27.2712 Q170.0923,27.0015 170.7231,26.4204 Z " fill="#000000"/><text fill="#000000" font-family="sans-serif" font-size="14" lengthAdjust="spacing" textLength="89" x="188.75" y="28.291">LibraryCache</text><line style="stroke:#181818;stroke-width:0.5;" x1="28.5" x2="405.5" y1="39" y2="39"/><rect fill="none" height="6" style="stroke:#C82930;stroke-width:1.0;" width="6" x="35.5" y="49.7441"/><text fill="#000000" font-family="sans-serif" font-size="14" lengthAdjust="spacing" textLength="285" x="47.5" y="56.5352">std::map&lt;std::string, CacheEntry&gt; cache_</text><rect fill="none" height="6" style="stroke:#C82930;stroke-width:1.0;" width="6" x="35.5" y="66.2324"/><text fill="#000000" font-family="sans-serif" font-size="14" lengthAdjust="spacing" textLength="128" x="47.5" y="73.0234">std::mutex mutex_</text><rect fill="none" height="6" style="stroke:#C82930;stroke-width:1.0;" width="6" x="35.5" y="82.7207"/><text fill="#000000" font-family="sans-serif" font-size="14" lengthAdjust="spacing" textLength="251" x="47.5" y="89.5117">std::atomic&lt;bool&gt; cleaner_running_</text><rect fill="none" height="6" style="stroke:#C82930;stroke-width:1.0;" width="6" x="35.5" y="99.209"/><text fill="#000000" font-family="sans-serif" font-size="14" lengthAdjust="spacing" textLength="306" x="47.5" y="106">const std::chrono::seconds cleanup_interval_</text><line style="stroke:#181818;stroke-width:0.5;" x1="28.5" x2="405.5" y1="112.9531" y2="112.9531"/><ellipse cx="38.5" cy="126.6973" fill="#84BE84" rx="3" ry="3" style="stroke:#038048;stroke-width:1.0;"/><text fill="#000000" font-family="sans-serif" font-size="14" lengthAdjust="spacing" textLength="99" x="47.5" y="130.4883">LibraryCache()</text><ellipse cx="38.5" cy="143.1855" fill="#84BE84" rx="3" ry="3" style="stroke:#038048;stroke-width:1.0;"/><text fill="#000000" font-family="sans-serif" font-size="14" lengthAdjust="spacing" textLength="108" x="47.5" y="146.9766">~LibraryCache()</text><ellipse cx="38.5" cy="159.6738" fill="#84BE84" rx="3" ry="3" style="stroke:#038048;stroke-width:1.0;"/><text fill="#000000" font-family="sans-serif" font-size="14" lengthAdjust="spacing" textLength="353" x="47.5" y="163.4648">std::shared_ptr&lt;void&gt; load(const std::string&amp; path)</text><ellipse cx="38.5" cy="176.1621" fill="#84BE84" rx="3" ry="3" style="stroke:#038048;stroke-width:1.0;"/><text fill="#000000" font-family="sans-serif" font-size="14" lengthAdjust="spacing" textLength="139" x="47.5" y="179.9531">void clean_expired()</text><ellipse cx="38.5" cy="192.6504" fill="#84BE84" rx="3" ry="3" style="stroke:#038048;stroke-width:1.0;"/><text fill="#000000" font-family="sans-serif" font-size="14" lengthAdjust="spacing" textLength="267" x="47.5" y="196.4414">static void HandleDeleter(void* handle)</text></g><!--class CacheEntry--><g id="elem_CacheEntry"><rect codeLine="13" fill="#F1F1F1" height="97.4648" id="CacheEntry" rx="2.5" ry="2.5" style="stroke:#181818;stroke-width:0.5;" width="420" x="7" y="280.4"/><ellipse cx="174.25" cy="296.4" fill="#F1F1F1" rx="11" ry="11" style="stroke:#181818;stroke-width:1.0;"/><path d="M173.9834,297.463 Q172.1323,296.7574 171.4766,295.9813 Q170.8208,295.2052 170.8208,293.8937 Q170.8208,292.2086 171.8999,291.2457 Q172.979,290.2828 174.8633,290.2828 Q175.7183,290.2828 176.5732,290.4779 Q177.4282,290.6729 178.2666,291.0548 L178.2666,293.4454 Q177.478,292.8893 176.6646,292.5987 Q175.8511,292.3082 175.0542,292.3082 Q174.166,292.3082 173.6929,292.6651 Q173.2197,293.0221 173.2197,293.6861 Q173.2197,294.2008 173.5642,294.537 Q173.9087,294.8731 175.0044,295.2799 L176.0586,295.6783 Q177.5527,296.2262 178.2583,297.131 Q178.9639,298.0357 178.9639,299.4137 Q178.9639,301.2896 177.8557,302.2152 Q176.7476,303.1407 174.5063,303.1407 Q173.585,303.1407 172.6594,302.9208 Q171.7339,302.7008 170.8706,302.2691 L170.8706,299.7374 Q171.8501,300.4347 172.7673,300.775 Q173.6846,301.1153 174.5811,301.1153 Q175.4858,301.1153 175.9839,300.7044 Q176.4819,300.2936 176.4819,299.5548 Q176.4819,298.9986 176.1499,298.5794 Q175.8179,298.1603 175.187,297.9195 Z " fill="#000000"/><text fill="#000000" font-family="sans-serif" font-size="14" lengthAdjust="spacing" textLength="77" x="194.75" y="301.691">CacheEntry</text><line style="stroke:#181818;stroke-width:0.5;" x1="8" x2="426" y1="312.4" y2="312.4"/><rect fill="none" height="6" style="stroke:#C82930;stroke-width:1.0;" width="6" x="15" y="323.1441"/><text fill="#000000" font-family="sans-serif" font-size="14" lengthAdjust="spacing" textLength="235" x="27" y="329.9352">std::weak_ptr&lt;void&gt; weak_handle</text><rect fill="none" height="6" style="stroke:#C82930;stroke-width:1.0;" width="6" x="15" y="339.6324"/><text fill="#000000" font-family="sans-serif" font-size="14" lengthAdjust="spacing" textLength="332" x="27" y="346.4234">std::chrono::steady_clock::time_point last_access</text><line style="stroke:#181818;stroke-width:0.5;" x1="8" x2="426" y1="353.3766" y2="353.3766"/><rect fill="#F24D5C" height="6" style="stroke:#C82930;stroke-width:1.0;" width="6" x="15" y="364.1207"/><text fill="#000000" font-family="sans-serif" font-size="14" lengthAdjust="spacing" textLength="394" x="27" y="370.9117">std::unique_ptr&lt;void, decltype(&amp;dlclose)&gt; unique_handle</text></g><!--reverse link LibraryCache to CacheEntry--><g id="link_LibraryCache_CacheEntry"><path codeLine="19" d="M217,215.86 C217,242.26 217,257.68 217,280.02 " fill="none" id="LibraryCache-backto-CacheEntry" style="stroke:#181818;stroke-width:1.0;"/><polygon fill="#181818" points="217,203.86,213,209.86,217,215.86,221,209.86,217,203.86" style="stroke:#181818;stroke-width:1.0;"/><text fill="#000000" font-family="sans-serif" font-size="13" lengthAdjust="spacing" textLength="54" x="218" y="246.9684">contains</text><text fill="#000000" font-family="sans-serif" font-size="13" lengthAdjust="spacing" textLength="8" x="208.7188" y="223.9038">1</text><text fill="#000000" font-family="sans-serif" font-size="13" lengthAdjust="spacing" textLength="22" x="193.4531" y="269.6491">0..*</text></g><!--SRC=[PL51Ri8m4Bpd5QiSKA20sck4kD1AFVGFrcAl6WjZf_Q64bNjsxjn2gJY4ZdZcTdPiNQO4hpPVSJOxr0t15y5m2gngUiZjfjyI1ojVrz29hnuZlqMz71MDsx7T8RylO78uMZrPX-24u4Zz1HLxBmNjypImIU6pDLD33x8B1BGf97UjSfwfdX2D_0Vfa6h-O3yt4DZv0OZ6TLot9o2DLjm0KqrcJVkD8CMkScoWJPELNHkhQWlTiXMGxv-HMySFPCZ2LKDq0AQZCsBxw8GpqxpfAPSvgMDpjkFZgwHbc18E-vRgcR6QHSIpRVmHnfD9-9FmiDac_nxHxfso8IcL-Af3tNDzYXJWnG9yjgiK6jAIMII-D_BbqybB5OhA1_NwqKvNQC6QOxH-lGB]--></g></svg>