<?xml version="1.0" encoding="us-ascii" standalone="no"?><svg xmlns="http://www.w3.org/2000/svg" xmlns:xlink="http://www.w3.org/1999/xlink" contentStyleType="text/css" height="550px" preserveAspectRatio="none" style="width:1002px;height:550px;background:#FFFFFF;" version="1.1" viewBox="0 0 1002 550" width="1002px" zoomAndPan="magnify"><defs/><g><!--class main--><g id="elem_main"><rect codeLine="1" fill="#F1F1F1" height="97.4648" id="main" rx="2.5" ry="2.5" style="stroke:#181818;stroke-width:0.5;" width="529" x="95.5" y="7"/><ellipse cx="338.75" cy="23" fill="#ADD1B2" rx="11" ry="11" style="stroke:#181818;stroke-width:1.0;"/><path d="M341.2231,29.1431 Q340.6421,29.4419 340.0029,29.5913 Q339.3638,29.7407 338.6582,29.7407 Q336.1514,29.7407 334.8315,28.0889 Q333.5117,26.437 333.5117,23.3159 Q333.5117,20.1865 334.8315,18.5347 Q336.1514,16.8828 338.6582,16.8828 Q339.3638,16.8828 340.0112,17.0322 Q340.6587,17.1816 341.2231,17.4805 L341.2231,20.2031 Q340.5923,19.6221 339.9988,19.3523 Q339.4053,19.0825 338.7744,19.0825 Q337.4297,19.0825 336.7449,20.1492 Q336.0601,21.2158 336.0601,23.3159 Q336.0601,25.4077 336.7449,26.4744 Q337.4297,27.541 338.7744,27.541 Q339.4053,27.541 339.9988,27.2712 Q340.5923,27.0015 341.2231,26.4204 Z " fill="#000000"/><text fill="#000000" font-family="sans-serif" font-size="14" lengthAdjust="spacing" textLength="34" x="359.25" y="28.291">main</text><line style="stroke:#181818;stroke-width:0.5;" x1="96.5" x2="623.5" y1="39" y2="39"/><line style="stroke:#181818;stroke-width:0.5;" x1="96.5" x2="623.5" y1="47" y2="47"/><ellipse cx="106.5" cy="60.7441" fill="#84BE84" rx="3" ry="3" style="stroke:#038048;stroke-width:1.0;"/><text fill="#000000" font-family="sans-serif" font-size="14" lengthAdjust="spacing" textLength="44" x="115.5" y="64.5352">main()</text><ellipse cx="106.5" cy="77.2324" fill="#84BE84" rx="3" ry="3" style="stroke:#038048;stroke-width:1.0;"/><text fill="#000000" font-family="sans-serif" font-size="14" lengthAdjust="spacing" textLength="274" x="115.5" y="81.0234">load_library(path: String): LibraryHandle</text><ellipse cx="106.5" cy="93.7207" fill="#84BE84" rx="3" ry="3" style="stroke:#038048;stroke-width:1.0;"/><text fill="#000000" font-family="sans-serif" font-size="14" lengthAdjust="spacing" textLength="503" x="115.5" y="97.5117">get_function&lt;FuncType&gt;(handle: LibraryHandle, name: String): FuncType</text></g><!--class load_library--><g id="elem_load_library"><rect codeLine="7" fill="#F1F1F1" height="64.4883" id="load_library" rx="2.5" ry="2.5" style="stroke:#181818;stroke-width:0.5;" width="300" x="7" y="164.46"/><ellipse cx="112.25" cy="180.46" fill="#ADD1B2" rx="11" ry="11" style="stroke:#181818;stroke-width:1.0;"/><path d="M114.7231,186.6031 Q114.1421,186.9019 113.5029,187.0513 Q112.8638,187.2007 112.1582,187.2007 Q109.6514,187.2007 108.3315,185.5489 Q107.0117,183.897 107.0117,180.7759 Q107.0117,177.6465 108.3315,175.9947 Q109.6514,174.3428 112.1582,174.3428 Q112.8638,174.3428 113.5112,174.4922 Q114.1587,174.6416 114.7231,174.9405 L114.7231,177.6631 Q114.0923,177.0821 113.4988,176.8123 Q112.9053,176.5425 112.2744,176.5425 Q110.9297,176.5425 110.2449,177.6092 Q109.5601,178.6758 109.5601,180.7759 Q109.5601,182.8677 110.2449,183.9344 Q110.9297,185.001 112.2744,185.001 Q112.9053,185.001 113.4988,184.7312 Q114.0923,184.4615 114.7231,183.8804 Z " fill="#000000"/><text fill="#000000" font-family="sans-serif" font-size="14" lengthAdjust="spacing" textLength="81" x="132.75" y="185.751">load_library</text><line style="stroke:#181818;stroke-width:0.5;" x1="8" x2="306" y1="196.46" y2="196.46"/><line style="stroke:#181818;stroke-width:0.5;" x1="8" x2="306" y1="204.46" y2="204.46"/><ellipse cx="18" cy="218.2041" fill="#84BE84" rx="3" ry="3" style="stroke:#038048;stroke-width:1.0;"/><text fill="#000000" font-family="sans-serif" font-size="14" lengthAdjust="spacing" textLength="274" x="27" y="221.9952">load_library(path: String): LibraryHandle</text></g><!--class get_function--><g id="elem_get_function"><rect codeLine="11" fill="#F1F1F1" height="64.4883" id="get_function" rx="2.5" ry="2.5" style="stroke:#181818;stroke-width:0.5;" width="529" x="466.5" y="297.19"/><ellipse cx="683.75" cy="313.19" fill="#ADD1B2" rx="11" ry="11" style="stroke:#181818;stroke-width:1.0;"/><path d="M686.2231,319.3331 Q685.6421,319.6319 685.0029,319.7813 Q684.3638,319.9307 683.6582,319.9307 Q681.1514,319.9307 679.8315,318.2789 Q678.5117,316.627 678.5117,313.5059 Q678.5117,310.3765 679.8315,308.7247 Q681.1514,307.0728 683.6582,307.0728 Q684.3638,307.0728 685.0112,307.2222 Q685.6587,307.3716 686.2231,307.6705 L686.2231,310.3931 Q685.5923,309.8121 684.9988,309.5423 Q684.4053,309.2725 683.7744,309.2725 Q682.4297,309.2725 681.7449,310.3392 Q681.0601,311.4058 681.0601,313.5059 Q681.0601,315.5977 681.7449,316.6644 Q682.4297,317.731 683.7744,317.731 Q684.4053,317.731 684.9988,317.4612 Q685.5923,317.1915 686.2231,316.6104 Z " fill="#000000"/><text fill="#000000" font-family="sans-serif" font-size="14" lengthAdjust="spacing" textLength="86" x="704.25" y="318.481">get_function</text><line style="stroke:#181818;stroke-width:0.5;" x1="467.5" x2="994.5" y1="329.19" y2="329.19"/><line style="stroke:#181818;stroke-width:0.5;" x1="467.5" x2="994.5" y1="337.19" y2="337.19"/><ellipse cx="477.5" cy="350.9341" fill="#84BE84" rx="3" ry="3" style="stroke:#038048;stroke-width:1.0;"/><text fill="#000000" font-family="sans-serif" font-size="14" lengthAdjust="spacing" textLength="503" x="486.5" y="354.7252">get_function&lt;FuncType&gt;(handle: LibraryHandle, name: String): FuncType</text></g><!--class LibraryHandle--><g id="elem_LibraryHandle"><rect codeLine="15" fill="#F1F1F1" height="80.9766" id="LibraryHandle" rx="2.5" ry="2.5" style="stroke:#181818;stroke-width:0.5;" width="343" x="88.5" y="288.95"/><ellipse cx="208.25" cy="304.95" fill="#ADD1B2" rx="11" ry="11" style="stroke:#181818;stroke-width:1.0;"/><path d="M210.7231,311.0931 Q210.1421,311.3919 209.5029,311.5413 Q208.8638,311.6907 208.1582,311.6907 Q205.6514,311.6907 204.3315,310.0389 Q203.0117,308.387 203.0117,305.2659 Q203.0117,302.1365 204.3315,300.4847 Q205.6514,298.8328 208.1582,298.8328 Q208.8638,298.8328 209.5112,298.9822 Q210.1587,299.1316 210.7231,299.4305 L210.7231,302.1531 Q210.0923,301.5721 209.4988,301.3023 Q208.9053,301.0325 208.2744,301.0325 Q206.9297,301.0325 206.2449,302.0992 Q205.5601,303.1658 205.5601,305.2659 Q205.5601,307.3577 206.2449,308.4244 Q206.9297,309.491 208.2744,309.491 Q208.9053,309.491 209.4988,309.2212 Q210.0923,308.9515 210.7231,308.3704 Z " fill="#000000"/><text fill="#000000" font-family="sans-serif" font-size="14" lengthAdjust="spacing" textLength="95" x="228.75" y="310.241">LibraryHandle</text><line style="stroke:#181818;stroke-width:0.5;" x1="89.5" x2="430.5" y1="320.95" y2="320.95"/><line style="stroke:#181818;stroke-width:0.5;" x1="89.5" x2="430.5" y1="328.95" y2="328.95"/><ellipse cx="99.5" cy="342.6941" fill="#84BE84" rx="3" ry="3" style="stroke:#038048;stroke-width:1.0;"/><text fill="#000000" font-family="sans-serif" font-size="14" lengthAdjust="spacing" textLength="317" x="108.5" y="346.4852">LibraryHandle(handle: void*, deleter: function)</text><ellipse cx="99.5" cy="359.1824" fill="#84BE84" rx="3" ry="3" style="stroke:#038048;stroke-width:1.0;"/><text fill="#000000" font-family="sans-serif" font-size="14" lengthAdjust="spacing" textLength="76" x="108.5" y="362.9734">get(): void*</text></g><!--class dlfcn--><g id="elem_dlfcn"><rect codeLine="20" fill="#F1F1F1" height="113.9531" id="dlfcn" rx="2.5" ry="2.5" style="stroke:#181818;stroke-width:0.5;" width="306" x="107" y="429.93"/><ellipse cx="238.75" cy="445.93" fill="#ADD1B2" rx="11" ry="11" style="stroke:#181818;stroke-width:1.0;"/><path d="M241.2231,452.0731 Q240.6421,452.3719 240.0029,452.5213 Q239.3638,452.6707 238.6582,452.6707 Q236.1514,452.6707 234.8315,451.0189 Q233.5117,449.367 233.5117,446.2459 Q233.5117,443.1165 234.8315,441.4647 Q236.1514,439.8128 238.6582,439.8128 Q239.3638,439.8128 240.0112,439.9622 Q240.6587,440.1116 241.2231,440.4105 L241.2231,443.1331 Q240.5923,442.5521 239.9988,442.2823 Q239.4053,442.0125 238.7744,442.0125 Q237.4297,442.0125 236.7449,443.0792 Q236.0601,444.1458 236.0601,446.2459 Q236.0601,448.3377 236.7449,449.4044 Q237.4297,450.471 238.7744,450.471 Q239.4053,450.471 239.9988,450.2012 Q240.5923,449.9315 241.2231,449.3504 Z " fill="#000000"/><text fill="#000000" font-family="sans-serif" font-size="14" lengthAdjust="spacing" textLength="34" x="259.25" y="451.221">dlfcn</text><line style="stroke:#181818;stroke-width:0.5;" x1="108" x2="412" y1="461.93" y2="461.93"/><line style="stroke:#181818;stroke-width:0.5;" x1="108" x2="412" y1="469.93" y2="469.93"/><ellipse cx="118" cy="483.6741" fill="#84BE84" rx="3" ry="3" style="stroke:#038048;stroke-width:1.0;"/><text fill="#000000" font-family="sans-serif" font-size="14" lengthAdjust="spacing" textLength="242" x="127" y="487.4652">dlopen(path: String, flag: int): void*</text><ellipse cx="118" cy="500.1624" fill="#84BE84" rx="3" ry="3" style="stroke:#038048;stroke-width:1.0;"/><text fill="#000000" font-family="sans-serif" font-size="14" lengthAdjust="spacing" textLength="186" x="127" y="503.9534">dlclose(handle: void*): void</text><ellipse cx="118" cy="516.6507" fill="#84BE84" rx="3" ry="3" style="stroke:#038048;stroke-width:1.0;"/><text fill="#000000" font-family="sans-serif" font-size="14" lengthAdjust="spacing" textLength="280" x="127" y="520.4417">dlsym(handle: void*, name: String): void*</text><ellipse cx="118" cy="533.139" fill="#84BE84" rx="3" ry="3" style="stroke:#038048;stroke-width:1.0;"/><text fill="#000000" font-family="sans-serif" font-size="14" lengthAdjust="spacing" textLength="107" x="127" y="536.93">dlerror(): String</text></g><!--link main to load_library--><g id="link_main_load_library"><path codeLine="27" d="M289.57,104.95 C260.94,124.55 233.6098,143.249 208.0798,160.739 " fill="none" id="main-to-load_library" style="stroke:#181818;stroke-width:1.0;"/><polygon fill="#181818" points="203.13,164.13,212.8154,162.3434,207.2549,161.3041,208.2941,155.7436,203.13,164.13" style="stroke:#181818;stroke-width:1.0;"/></g><!--link main to get_function--><g id="link_main_get_function"><path codeLine="28" d="M425.47,104.68 C501.09,160.06 618.4992,246.0451 683.0492,293.3151 " fill="none" id="main-to-get_function" style="stroke:#181818;stroke-width:1.0;"/><polygon fill="#181818" points="687.89,296.86,682.9921,288.3154,683.856,293.9059,678.2655,294.7698,687.89,296.86" style="stroke:#181818;stroke-width:1.0;"/></g><!--link main to LibraryHandle--><g id="link_main_LibraryHandle"><path codeLine="29" d="M355.15,104.93 C350.42,140.27 341.46,188.87 325,228.95 C316.38,249.94 306.6159,266.3582 294.3459,283.8482 " fill="none" id="main-to-LibraryHandle" style="stroke:#181818;stroke-width:1.0;"/><polygon fill="#181818" points="290.9,288.76,299.3433,283.6895,293.7716,284.6668,292.7942,279.095,290.9,288.76" style="stroke:#181818;stroke-width:1.0;"/></g><!--link load_library to LibraryHandle--><g id="link_load_library_LibraryHandle"><path codeLine="30" d="M181.93,229.35 C195.98,247.19 209.9576,264.9164 224.9376,283.9364 " fill="none" id="load_library-to-LibraryHandle" style="stroke:#181818;stroke-width:1.0;"/><polygon fill="#181818" points="228.65,288.65,226.2238,279.1047,225.5563,284.722,219.939,284.0545,228.65,288.65" style="stroke:#181818;stroke-width:1.0;"/></g><!--link load_library to dlfcn--><g id="link_load_library_dlfcn"><path codeLine="31" d="M115.88,229.08 C98.53,244.91 80.24,265.68 71,288.95 C57.72,322.4 53.42,338.52 71,369.93 C84.44,393.95 100.191,410.1787 123.011,426.0187 " fill="none" id="load_library-to-dlfcn" style="stroke:#181818;stroke-width:1.0;"/><polygon fill="#181818" points="127.94,429.44,122.8275,421.022,123.8325,426.5889,118.2657,427.594,127.94,429.44" style="stroke:#181818;stroke-width:1.0;"/></g><!--link get_function to dlfcn--><g id="link_get_function_dlfcn"><path codeLine="32" d="M634.83,362.18 C571.07,383.23 491.7177,409.4195 418.7577,433.4995 " fill="none" id="get_function-to-dlfcn" style="stroke:#181818;stroke-width:1.0;"/><polygon fill="#181818" points="413.06,435.38,422.8602,436.3577,417.8081,433.8129,420.3529,428.7608,413.06,435.38" style="stroke:#181818;stroke-width:1.0;"/></g><!--link LibraryHandle to dlfcn--><g id="link_LibraryHandle_dlfcn"><path codeLine="33" d="M260,370.07 C260,388.15 260,403.89 260,423.63 " fill="none" id="LibraryHandle-to-dlfcn" style="stroke:#181818;stroke-width:1.0;"/><polygon fill="#181818" points="260,429.63,264,420.63,260,424.63,256,420.63,260,429.63" style="stroke:#181818;stroke-width:1.0;"/></g><!--SRC=[hPB1hi8W44NtVCKiMr_zWSQuD6_XphSt2DDACeM6yamQuxyhK5leoeMxoPtBdGE383uCq76buSu0VdnLbBuYm-MPrCLoEnOzTzSQJiugtPOr7AFyoxKazEOMtRdvry8fetU7L_4tzhWlhi6mybUWUOT9sjlF7eo9m9FEZboVqymXALCC-J9bveyJCcaElXabDnL897HeQtWpb1DKKKwU9LjI8oPgIQP7dLswWePuMuFIRZuQd8BCi9ex6M9_6BirrUgQIHXQQwndYqqF5pxAThlFDhIewGClQhwVRBSVjCDBi6oPYvolODQV]--></g></svg>