<?xml version="1.0" encoding="us-ascii" standalone="no"?><svg xmlns="http://www.w3.org/2000/svg" xmlns:xlink="http://www.w3.org/1999/xlink" contentStyleType="text/css" height="401px" preserveAspectRatio="none" style="width:928px;height:401px;background:#FFFFFF;" version="1.1" viewBox="0 0 928 401" width="928px" zoomAndPan="magnify"><defs/><g><!--class LibraryCache--><g id="elem_LibraryCache"><rect codeLine="1" fill="#F1F1F1" height="196.3945" id="LibraryCache" rx="2.5" ry="2.5" style="stroke:#181818;stroke-width:0.5;" width="379" x="274.5" y="7"/><ellipse cx="415.25" cy="23" fill="#ADD1B2" rx="11" ry="11" style="stroke:#181818;stroke-width:1.0;"/><path d="M417.7231,29.1431 Q417.1421,29.4419 416.5029,29.5913 Q415.8638,29.7407 415.1582,29.7407 Q412.6514,29.7407 411.3315,28.0889 Q410.0117,26.437 410.0117,23.3159 Q410.0117,20.1865 411.3315,18.5347 Q412.6514,16.8828 415.1582,16.8828 Q415.8638,16.8828 416.5112,17.0322 Q417.1587,17.1816 417.7231,17.4805 L417.7231,20.2031 Q417.0923,19.6221 416.4988,19.3523 Q415.9053,19.0825 415.2744,19.0825 Q413.9297,19.0825 413.2449,20.1492 Q412.5601,21.2158 412.5601,23.3159 Q412.5601,25.4077 413.2449,26.4744 Q413.9297,27.541 415.2744,27.541 Q415.9053,27.541 416.4988,27.2712 Q417.0923,27.0015 417.7231,26.4204 Z " fill="#000000"/><text fill="#000000" font-family="sans-serif" font-size="14" lengthAdjust="spacing" textLength="89" x="435.75" y="28.291">LibraryCache</text><line style="stroke:#181818;stroke-width:0.5;" x1="275.5" x2="652.5" y1="39" y2="39"/><rect fill="none" height="6" style="stroke:#C82930;stroke-width:1.0;" width="6" x="282.5" y="49.7441"/><text fill="#000000" font-family="sans-serif" font-size="14" lengthAdjust="spacing" textLength="285" x="294.5" y="56.5352">std::map&lt;std::string, CacheEntry&gt; cache_</text><rect fill="none" height="6" style="stroke:#C82930;stroke-width:1.0;" width="6" x="282.5" y="66.2324"/><text fill="#000000" font-family="sans-serif" font-size="14" lengthAdjust="spacing" textLength="128" x="294.5" y="73.0234">std::mutex mutex_</text><rect fill="none" height="6" style="stroke:#C82930;stroke-width:1.0;" width="6" x="282.5" y="82.7207"/><text fill="#000000" font-family="sans-serif" font-size="14" lengthAdjust="spacing" textLength="251" x="294.5" y="89.5117">std::atomic&lt;bool&gt; cleaner_running_</text><rect fill="none" height="6" style="stroke:#C82930;stroke-width:1.0;" width="6" x="282.5" y="99.209"/><text fill="#000000" font-family="sans-serif" font-size="14" lengthAdjust="spacing" textLength="306" x="294.5" y="106">const std::chrono::seconds cleanup_interval_</text><line style="stroke:#181818;stroke-width:0.5;" x1="275.5" x2="652.5" y1="112.9531" y2="112.9531"/><ellipse cx="285.5" cy="126.6973" fill="#84BE84" rx="3" ry="3" style="stroke:#038048;stroke-width:1.0;"/><text fill="#000000" font-family="sans-serif" font-size="14" lengthAdjust="spacing" textLength="99" x="294.5" y="130.4883">LibraryCache()</text><ellipse cx="285.5" cy="143.1855" fill="#84BE84" rx="3" ry="3" style="stroke:#038048;stroke-width:1.0;"/><text fill="#000000" font-family="sans-serif" font-size="14" lengthAdjust="spacing" textLength="108" x="294.5" y="146.9766">~LibraryCache()</text><ellipse cx="285.5" cy="159.6738" fill="#84BE84" rx="3" ry="3" style="stroke:#038048;stroke-width:1.0;"/><text fill="#000000" font-family="sans-serif" font-size="14" lengthAdjust="spacing" textLength="353" x="294.5" y="163.4648">std::shared_ptr&lt;void&gt; load(const std::string&amp; path)</text><ellipse cx="285.5" cy="176.1621" fill="#84BE84" rx="3" ry="3" style="stroke:#038048;stroke-width:1.0;"/><text fill="#000000" font-family="sans-serif" font-size="14" lengthAdjust="spacing" textLength="139" x="294.5" y="179.9531">void clean_expired()</text><ellipse cx="285.5" cy="192.6504" fill="#84BE84" rx="3" ry="3" style="stroke:#038048;stroke-width:1.0;"/><text fill="#000000" font-family="sans-serif" font-size="14" lengthAdjust="spacing" textLength="267" x="294.5" y="196.4414">static void HandleDeleter(void* handle)</text></g><!--class CacheEntry--><g id="elem_CacheEntry"><rect codeLine="13" fill="#F1F1F1" height="113.9531" id="CacheEntry" rx="2.5" ry="2.5" style="stroke:#181818;stroke-width:0.5;" width="914" x="7" y="280.4"/><ellipse cx="421.25" cy="296.4" fill="#F1F1F1" rx="11" ry="11" style="stroke:#181818;stroke-width:1.0;"/><path d="M420.9834,297.463 Q419.1323,296.7574 418.4766,295.9813 Q417.8208,295.2052 417.8208,293.8937 Q417.8208,292.2086 418.8999,291.2457 Q419.979,290.2828 421.8633,290.2828 Q422.7183,290.2828 423.5732,290.4779 Q424.4282,290.6729 425.2666,291.0548 L425.2666,293.4454 Q424.478,292.8893 423.6646,292.5987 Q422.8511,292.3082 422.0542,292.3082 Q421.166,292.3082 420.6929,292.6651 Q420.2197,293.0221 420.2197,293.6861 Q420.2197,294.2008 420.5642,294.537 Q420.9087,294.8731 422.0044,295.2799 L423.0586,295.6783 Q424.5527,296.2262 425.2583,297.131 Q425.9639,298.0357 425.9639,299.4137 Q425.9639,301.2896 424.8557,302.2152 Q423.7476,303.1407 421.5063,303.1407 Q420.585,303.1407 419.6594,302.9208 Q418.7339,302.7008 417.8706,302.2691 L417.8706,299.7374 Q418.8501,300.4347 419.7673,300.775 Q420.6846,301.1153 421.5811,301.1153 Q422.4858,301.1153 422.9839,300.7044 Q423.4819,300.2936 423.4819,299.5548 Q423.4819,298.9986 423.1499,298.5794 Q422.8179,298.1603 422.187,297.9195 Z " fill="#000000"/><text fill="#000000" font-family="sans-serif" font-size="14" lengthAdjust="spacing" textLength="77" x="441.75" y="301.691">CacheEntry</text><line style="stroke:#181818;stroke-width:0.5;" x1="8" x2="920" y1="312.4" y2="312.4"/><rect fill="none" height="6" style="stroke:#C82930;stroke-width:1.0;" width="6" x="15" y="323.1441"/><text fill="#000000" font-family="sans-serif" font-size="14" lengthAdjust="spacing" textLength="235" x="27" y="329.9352">std::weak_ptr&lt;void&gt; weak_handle</text><rect fill="none" height="6" style="stroke:#C82930;stroke-width:1.0;" width="6" x="15" y="339.6324"/><text fill="#000000" font-family="sans-serif" font-size="14" lengthAdjust="spacing" textLength="332" x="27" y="346.4234">std::chrono::steady_clock::time_point last_access</text><line style="stroke:#181818;stroke-width:0.5;" x1="8" x2="920" y1="353.3766" y2="353.3766"/><rect fill="#F24D5C" height="6" style="stroke:#C82930;stroke-width:1.0;" width="6" x="15" y="364.1207"/><text fill="#000000" font-family="sans-serif" font-size="14" lengthAdjust="spacing" textLength="414" x="27" y="370.9117">std::unique_ptr&lt;void, int(*)(void*)noexcept&gt; unique_handle</text><ellipse cx="18" cy="383.609" fill="#84BE84" rx="3" ry="3" style="stroke:#038048;stroke-width:1.0;"/><text fill="#000000" font-family="sans-serif" font-size="14" lengthAdjust="spacing" textLength="888" x="27" y="387.4">CacheEntry(std::unique_ptr&lt;void, int(*)(void*)noexcept&gt;&amp;&amp; uh, std::weak_ptr&lt;void&gt; wh, std::chrono::steady_clock::time_point la)</text></g><!--reverse link LibraryCache to CacheEntry--><g id="link_LibraryCache_CacheEntry"><path codeLine="20" d="M464,215.81 C464,241.79 464,256.98 464,279.93 " fill="none" id="LibraryCache-backto-CacheEntry" style="stroke:#181818;stroke-width:1.0;"/><polygon fill="#181818" points="464,203.81,460,209.81,464,215.81,468,209.81,464,203.81" style="stroke:#181818;stroke-width:1.0;"/><text fill="#000000" font-family="sans-serif" font-size="13" lengthAdjust="spacing" textLength="54" x="465" y="246.9684">contains</text><text fill="#000000" font-family="sans-serif" font-size="13" lengthAdjust="spacing" textLength="8" x="455.7188" y="223.8503">1</text><text fill="#000000" font-family="sans-serif" font-size="13" lengthAdjust="spacing" textLength="22" x="440.6594" y="269.6019">0..*</text></g><!--SRC=[bLBBJiCm4BpdArOvL4dw45oZgXT0ui0_M5jxHInSEzZhqWh1j-Cuj0qg1xX4pcHsPdOSQJ04UD9RZ_vuXx8ZU2y0be5Ls-wmN-T3OA_jym8ouS6oFsv03cTnuKQc0-Jd1KHsEotNM-TC6Z24bhpmqTgabbdIsS2GkRBpphhaHGbKOQJ7NcZBvFTe1lvy6hIg1-Jp6XeZT-X9YPxzUk-qse1ngAg9txZJ37haBeyDjD5LqA7NQVeaXwmbvC-FQ9MXUpAKGbK3r42NiRhuA8ga6ILFQifbdjg8Lhz6EaTQG5gjQkfHfhQE3f9wti0tRzITpByHlamMogzNf7EDJAYEGXedNzgMzIuPksG8wS9Pe9GKGXwRNz9M_uavcq7i5l1hiXF-Xp13nQcv7tzWULj2irn2URDQDUMqpXRI3J9g6xu0]--></g></svg>