<?xml version="1.0" encoding="us-ascii" standalone="no"?><svg xmlns="http://www.w3.org/2000/svg" xmlns:xlink="http://www.w3.org/1999/xlink" contentStyleType="text/css" height="1116px" preserveAspectRatio="none" style="width:911px;height:1116px;background:#FFFFFF;" version="1.1" viewBox="0 0 911 1116" width="911px" zoomAndPan="magnify"><defs/><g><line style="stroke:#181818;stroke-width:0.5;stroke-dasharray:5.0,5.0;" x1="23" x2="23" y1="81.4883" y2="1035.873"/><line style="stroke:#181818;stroke-width:0.5;stroke-dasharray:5.0,5.0;" x1="128.5" x2="128.5" y1="81.4883" y2="1035.873"/><line style="stroke:#181818;stroke-width:0.5;stroke-dasharray:5.0,5.0;" x1="299" x2="299" y1="81.4883" y2="1035.873"/><line style="stroke:#181818;stroke-width:0.5;stroke-dasharray:5.0,5.0;" x1="509.5" x2="509.5" y1="81.4883" y2="1035.873"/><line style="stroke:#181818;stroke-width:0.5;stroke-dasharray:5.0,5.0;" x1="754.5" x2="754.5" y1="81.4883" y2="1035.873"/><text fill="#000000" font-family="sans-serif" font-size="14" lengthAdjust="spacing" textLength="31" x="5" y="78.5352">User</text><ellipse cx="23.5" cy="13.5" fill="#E2E2F0" rx="8" ry="8" style="stroke:#181818;stroke-width:0.5;"/><path d="M23.5,21.5 L23.5,48.5 M10.5,29.5 L36.5,29.5 M23.5,48.5 L10.5,63.5 M23.5,48.5 L36.5,63.5 " fill="none" style="stroke:#181818;stroke-width:0.5;"/><text fill="#000000" font-family="sans-serif" font-size="14" lengthAdjust="spacing" textLength="31" x="5" y="1048.4082">User</text><ellipse cx="23.5" cy="1059.8613" fill="#E2E2F0" rx="8" ry="8" style="stroke:#181818;stroke-width:0.5;"/><path d="M23.5,1067.8613 L23.5,1094.8613 M10.5,1075.8613 L36.5,1075.8613 M23.5,1094.8613 L10.5,1109.8613 M23.5,1094.8613 L36.5,1109.8613 " fill="none" style="stroke:#181818;stroke-width:0.5;"/><rect fill="#E2E2F0" height="30.4883" rx="2.5" ry="2.5" style="stroke:#181818;stroke-width:0.5;" width="48" x="104.5" y="50"/><text fill="#000000" font-family="sans-serif" font-size="14" lengthAdjust="spacing" textLength="34" x="111.5" y="70.5352">main</text><rect fill="#E2E2F0" height="30.4883" rx="2.5" ry="2.5" style="stroke:#181818;stroke-width:0.5;" width="48" x="104.5" y="1034.873"/><text fill="#000000" font-family="sans-serif" font-size="14" lengthAdjust="spacing" textLength="34" x="111.5" y="1055.4082">main</text><rect fill="#E2E2F0" height="30.4883" rx="2.5" ry="2.5" style="stroke:#181818;stroke-width:0.5;" width="103" x="248" y="50"/><text fill="#000000" font-family="sans-serif" font-size="14" lengthAdjust="spacing" textLength="89" x="255" y="70.5352">LibraryCache</text><rect fill="#E2E2F0" height="30.4883" rx="2.5" ry="2.5" style="stroke:#181818;stroke-width:0.5;" width="103" x="248" y="1034.873"/><text fill="#000000" font-family="sans-serif" font-size="14" lengthAdjust="spacing" textLength="89" x="255" y="1055.4082">LibraryCache</text><rect fill="#E2E2F0" height="30.4883" rx="2.5" ry="2.5" style="stroke:#181818;stroke-width:0.5;" width="168" x="425.5" y="50"/><text fill="#000000" font-family="sans-serif" font-size="14" lengthAdjust="spacing" textLength="154" x="432.5" y="70.5352">std::shared_ptr&lt;void&gt;</text><rect fill="#E2E2F0" height="30.4883" rx="2.5" ry="2.5" style="stroke:#181818;stroke-width:0.5;" width="168" x="425.5" y="1034.873"/><text fill="#000000" font-family="sans-serif" font-size="14" lengthAdjust="spacing" textLength="154" x="432.5" y="1055.4082">std::shared_ptr&lt;void&gt;</text><rect fill="#E2E2F0" height="30.4883" rx="2.5" ry="2.5" style="stroke:#181818;stroke-width:0.5;" width="302" x="603.5" y="50"/><text fill="#000000" font-family="sans-serif" font-size="14" lengthAdjust="spacing" textLength="288" x="610.5" y="70.5352">std::unique_ptr&lt;void, decltype(&amp;dlclose)&gt;</text><rect fill="#E2E2F0" height="30.4883" rx="2.5" ry="2.5" style="stroke:#181818;stroke-width:0.5;" width="302" x="603.5" y="1034.873"/><text fill="#000000" font-family="sans-serif" font-size="14" lengthAdjust="spacing" textLength="288" x="610.5" y="1055.4082">std::unique_ptr&lt;void, decltype(&amp;dlclose)&gt;</text><polygon fill="#181818" points="116.5,108.7988,126.5,112.7988,116.5,116.7988,120.5,112.7988" style="stroke:#181818;stroke-width:1.0;"/><line style="stroke:#181818;stroke-width:1.0;" x1="23.5" x2="122.5" y1="112.7988" y2="112.7988"/><text fill="#000000" font-family="sans-serif" font-size="13" lengthAdjust="spacing" textLength="81" x="30.5" y="108.0566">Run program</text><polygon fill="#181818" points="287.5,138.1094,297.5,142.1094,287.5,146.1094,291.5,142.1094" style="stroke:#181818;stroke-width:1.0;"/><line style="stroke:#181818;stroke-width:1.0;" x1="128.5" x2="293.5" y1="142.1094" y2="142.1094"/><text fill="#000000" font-family="sans-serif" font-size="13" lengthAdjust="spacing" textLength="126" x="135.5" y="137.3672">load("./libmylib.so")</text><line style="stroke:#181818;stroke-width:1.0;" x1="299.5" x2="341.5" y1="171.4199" y2="171.4199"/><line style="stroke:#181818;stroke-width:1.0;" x1="341.5" x2="341.5" y1="171.4199" y2="184.4199"/><line style="stroke:#181818;stroke-width:1.0;" x1="300.5" x2="341.5" y1="184.4199" y2="184.4199"/><polygon fill="#181818" points="310.5,180.4199,300.5,184.4199,310.5,188.4199,306.5,184.4199" style="stroke:#181818;stroke-width:1.0;"/><text fill="#000000" font-family="sans-serif" font-size="13" lengthAdjust="spacing" textLength="196" x="306.5" y="166.6777">Check cache for "./libmylib.so"</text><line style="stroke:#181818;stroke-width:1.0;" x1="299.5" x2="341.5" y1="213.7305" y2="213.7305"/><line style="stroke:#181818;stroke-width:1.0;" x1="341.5" x2="341.5" y1="213.7305" y2="226.7305"/><line style="stroke:#181818;stroke-width:1.0;" x1="300.5" x2="341.5" y1="226.7305" y2="226.7305"/><polygon fill="#181818" points="310.5,222.7305,300.5,226.7305,310.5,230.7305,306.5,226.7305" style="stroke:#181818;stroke-width:1.0;"/><text fill="#000000" font-family="sans-serif" font-size="13" lengthAdjust="spacing" textLength="143" x="306.5" y="208.9883">Not found, load library</text><polygon fill="#181818" points="742.5,252.041,752.5,256.041,742.5,260.041,746.5,256.041" style="stroke:#181818;stroke-width:1.0;"/><line style="stroke:#181818;stroke-width:1.0;" x1="299.5" x2="748.5" y1="256.041" y2="256.041"/><text fill="#000000" font-family="sans-serif" font-size="13" lengthAdjust="spacing" textLength="136" x="306.5" y="251.2988">Create unique pointer</text><polygon fill="#181818" points="497.5,281.3516,507.5,285.3516,497.5,289.3516,501.5,285.3516" style="stroke:#181818;stroke-width:1.0;"/><line style="stroke:#181818;stroke-width:1.0;" x1="299.5" x2="503.5" y1="285.3516" y2="285.3516"/><text fill="#000000" font-family="sans-serif" font-size="13" lengthAdjust="spacing" textLength="135" x="306.5" y="280.6094">Create shared pointer</text><line style="stroke:#181818;stroke-width:1.0;" x1="299.5" x2="341.5" y1="314.6621" y2="314.6621"/><line style="stroke:#181818;stroke-width:1.0;" x1="341.5" x2="341.5" y1="314.6621" y2="327.6621"/><line style="stroke:#181818;stroke-width:1.0;" x1="300.5" x2="341.5" y1="327.6621" y2="327.6621"/><polygon fill="#181818" points="310.5,323.6621,300.5,327.6621,310.5,331.6621,306.5,327.6621" style="stroke:#181818;stroke-width:1.0;"/><text fill="#000000" font-family="sans-serif" font-size="13" lengthAdjust="spacing" textLength="180" x="306.5" y="309.9199">Update cache with new entry</text><polygon fill="#181818" points="497.5,352.9727,507.5,356.9727,497.5,360.9727,501.5,356.9727" style="stroke:#181818;stroke-width:1.0;"/><line style="stroke:#181818;stroke-width:1.0;" x1="128.5" x2="503.5" y1="356.9727" y2="356.9727"/><text fill="#000000" font-family="sans-serif" font-size="13" lengthAdjust="spacing" textLength="123" x="135.5" y="352.2305">Get function "hello"</text><polygon fill="#181818" points="310.5,382.2832,300.5,386.2832,310.5,390.2832,306.5,386.2832" style="stroke:#181818;stroke-width:1.0;"/><line style="stroke:#181818;stroke-width:1.0;" x1="304.5" x2="508.5" y1="386.2832" y2="386.2832"/><text fill="#000000" font-family="sans-serif" font-size="13" lengthAdjust="spacing" textLength="96" x="316.5" y="381.541">Get raw pointer</text><polygon fill="#181818" points="139.5,411.5938,129.5,415.5938,139.5,419.5938,135.5,415.5938" style="stroke:#181818;stroke-width:1.0;"/><line style="stroke:#181818;stroke-width:1.0;" x1="133.5" x2="298.5" y1="415.5938" y2="415.5938"/><text fill="#000000" font-family="sans-serif" font-size="13" lengthAdjust="spacing" textLength="147" x="145.5" y="410.8516">Return function pointer</text><line style="stroke:#181818;stroke-width:1.0;" x1="128.5" x2="170.5" y1="444.9043" y2="444.9043"/><line style="stroke:#181818;stroke-width:1.0;" x1="170.5" x2="170.5" y1="444.9043" y2="457.9043"/><line style="stroke:#181818;stroke-width:1.0;" x1="129.5" x2="170.5" y1="457.9043" y2="457.9043"/><polygon fill="#181818" points="139.5,453.9043,129.5,457.9043,139.5,461.9043,135.5,457.9043" style="stroke:#181818;stroke-width:1.0;"/><text fill="#000000" font-family="sans-serif" font-size="13" lengthAdjust="spacing" textLength="67" x="135.5" y="440.1621">Call hello()</text><polygon fill="#181818" points="287.5,483.2148,297.5,487.2148,287.5,491.2148,291.5,487.2148" style="stroke:#181818;stroke-width:1.0;"/><line style="stroke:#181818;stroke-width:1.0;" x1="128.5" x2="293.5" y1="487.2148" y2="487.2148"/><text fill="#000000" font-family="sans-serif" font-size="13" lengthAdjust="spacing" textLength="126" x="135.5" y="482.4727">load("./libmylib.so")</text><line style="stroke:#181818;stroke-width:1.0;" x1="299.5" x2="341.5" y1="516.5254" y2="516.5254"/><line style="stroke:#181818;stroke-width:1.0;" x1="341.5" x2="341.5" y1="516.5254" y2="529.5254"/><line style="stroke:#181818;stroke-width:1.0;" x1="300.5" x2="341.5" y1="529.5254" y2="529.5254"/><polygon fill="#181818" points="310.5,525.5254,300.5,529.5254,310.5,533.5254,306.5,529.5254" style="stroke:#181818;stroke-width:1.0;"/><text fill="#000000" font-family="sans-serif" font-size="13" lengthAdjust="spacing" textLength="196" x="306.5" y="511.7832">Check cache for "./libmylib.so"</text><line style="stroke:#181818;stroke-width:1.0;" x1="299.5" x2="341.5" y1="558.8359" y2="558.8359"/><line style="stroke:#181818;stroke-width:1.0;" x1="341.5" x2="341.5" y1="558.8359" y2="571.8359"/><line style="stroke:#181818;stroke-width:1.0;" x1="300.5" x2="341.5" y1="571.8359" y2="571.8359"/><polygon fill="#181818" points="310.5,567.8359,300.5,571.8359,310.5,575.8359,306.5,571.8359" style="stroke:#181818;stroke-width:1.0;"/><text fill="#000000" font-family="sans-serif" font-size="13" lengthAdjust="spacing" textLength="163" x="306.5" y="554.0938">Found, update last access</text><polygon fill="#181818" points="497.5,597.1465,507.5,601.1465,497.5,605.1465,501.5,601.1465" style="stroke:#181818;stroke-width:1.0;"/><line style="stroke:#181818;stroke-width:1.0;" x1="128.5" x2="503.5" y1="601.1465" y2="601.1465"/><text fill="#000000" font-family="sans-serif" font-size="13" lengthAdjust="spacing" textLength="115" x="135.5" y="596.4043">Get function "add"</text><polygon fill="#181818" points="310.5,626.457,300.5,630.457,310.5,634.457,306.5,630.457" style="stroke:#181818;stroke-width:1.0;"/><line style="stroke:#181818;stroke-width:1.0;" x1="304.5" x2="508.5" y1="630.457" y2="630.457"/><text fill="#000000" font-family="sans-serif" font-size="13" lengthAdjust="spacing" textLength="96" x="316.5" y="625.7148">Get raw pointer</text><polygon fill="#181818" points="139.5,655.7676,129.5,659.7676,139.5,663.7676,135.5,659.7676" style="stroke:#181818;stroke-width:1.0;"/><line style="stroke:#181818;stroke-width:1.0;" x1="133.5" x2="298.5" y1="659.7676" y2="659.7676"/><text fill="#000000" font-family="sans-serif" font-size="13" lengthAdjust="spacing" textLength="147" x="145.5" y="655.0254">Return function pointer</text><line style="stroke:#181818;stroke-width:1.0;" x1="128.5" x2="170.5" y1="689.0781" y2="689.0781"/><line style="stroke:#181818;stroke-width:1.0;" x1="170.5" x2="170.5" y1="689.0781" y2="702.0781"/><line style="stroke:#181818;stroke-width:1.0;" x1="129.5" x2="170.5" y1="702.0781" y2="702.0781"/><polygon fill="#181818" points="139.5,698.0781,129.5,702.0781,139.5,706.0781,135.5,702.0781" style="stroke:#181818;stroke-width:1.0;"/><text fill="#000000" font-family="sans-serif" font-size="13" lengthAdjust="spacing" textLength="83" x="135.5" y="684.3359">Call add(3, 5)</text><polygon fill="#181818" points="287.5,727.3887,297.5,731.3887,287.5,735.3887,291.5,731.3887" style="stroke:#181818;stroke-width:1.0;"/><line style="stroke:#181818;stroke-width:1.0;" x1="128.5" x2="293.5" y1="731.3887" y2="731.3887"/><text fill="#000000" font-family="sans-serif" font-size="13" lengthAdjust="spacing" textLength="95" x="135.5" y="726.6465">clean_expired()</text><line style="stroke:#181818;stroke-width:1.0;" x1="299.5" x2="341.5" y1="760.6992" y2="760.6992"/><line style="stroke:#181818;stroke-width:1.0;" x1="341.5" x2="341.5" y1="760.6992" y2="773.6992"/><line style="stroke:#181818;stroke-width:1.0;" x1="300.5" x2="341.5" y1="773.6992" y2="773.6992"/><polygon fill="#181818" points="310.5,769.6992,300.5,773.6992,310.5,777.6992,306.5,773.6992" style="stroke:#181818;stroke-width:1.0;"/><text fill="#000000" font-family="sans-serif" font-size="13" lengthAdjust="spacing" textLength="133" x="306.5" y="755.957">Clean expired entries</text><polygon fill="#181818" points="287.5,799.0098,297.5,803.0098,287.5,807.0098,291.5,803.0098" style="stroke:#181818;stroke-width:1.0;"/><line style="stroke:#181818;stroke-width:1.0;" x1="128.5" x2="293.5" y1="803.0098" y2="803.0098"/><text fill="#000000" font-family="sans-serif" font-size="13" lengthAdjust="spacing" textLength="126" x="135.5" y="798.2676">load("./libmylib.so")</text><line style="stroke:#181818;stroke-width:1.0;" x1="299.5" x2="341.5" y1="832.3203" y2="832.3203"/><line style="stroke:#181818;stroke-width:1.0;" x1="341.5" x2="341.5" y1="832.3203" y2="845.3203"/><line style="stroke:#181818;stroke-width:1.0;" x1="300.5" x2="341.5" y1="845.3203" y2="845.3203"/><polygon fill="#181818" points="310.5,841.3203,300.5,845.3203,310.5,849.3203,306.5,845.3203" style="stroke:#181818;stroke-width:1.0;"/><text fill="#000000" font-family="sans-serif" font-size="13" lengthAdjust="spacing" textLength="196" x="306.5" y="827.5781">Check cache for "./libmylib.so"</text><line style="stroke:#181818;stroke-width:1.0;" x1="299.5" x2="341.5" y1="874.6309" y2="874.6309"/><line style="stroke:#181818;stroke-width:1.0;" x1="341.5" x2="341.5" y1="874.6309" y2="887.6309"/><line style="stroke:#181818;stroke-width:1.0;" x1="300.5" x2="341.5" y1="887.6309" y2="887.6309"/><polygon fill="#181818" points="310.5,883.6309,300.5,887.6309,310.5,891.6309,306.5,887.6309" style="stroke:#181818;stroke-width:1.0;"/><text fill="#000000" font-family="sans-serif" font-size="13" lengthAdjust="spacing" textLength="163" x="306.5" y="869.8887">Found, update last access</text><polygon fill="#181818" points="497.5,912.9414,507.5,916.9414,497.5,920.9414,501.5,916.9414" style="stroke:#181818;stroke-width:1.0;"/><line style="stroke:#181818;stroke-width:1.0;" x1="128.5" x2="503.5" y1="916.9414" y2="916.9414"/><text fill="#000000" font-family="sans-serif" font-size="13" lengthAdjust="spacing" textLength="115" x="135.5" y="912.1992">Get function "add"</text><polygon fill="#181818" points="310.5,942.252,300.5,946.252,310.5,950.252,306.5,946.252" style="stroke:#181818;stroke-width:1.0;"/><line style="stroke:#181818;stroke-width:1.0;" x1="304.5" x2="508.5" y1="946.252" y2="946.252"/><text fill="#000000" font-family="sans-serif" font-size="13" lengthAdjust="spacing" textLength="96" x="316.5" y="941.5098">Get raw pointer</text><polygon fill="#181818" points="139.5,971.5625,129.5,975.5625,139.5,979.5625,135.5,975.5625" style="stroke:#181818;stroke-width:1.0;"/><line style="stroke:#181818;stroke-width:1.0;" x1="133.5" x2="298.5" y1="975.5625" y2="975.5625"/><text fill="#000000" font-family="sans-serif" font-size="13" lengthAdjust="spacing" textLength="147" x="145.5" y="970.8203">Return function pointer</text><line style="stroke:#181818;stroke-width:1.0;" x1="128.5" x2="170.5" y1="1004.873" y2="1004.873"/><line style="stroke:#181818;stroke-width:1.0;" x1="170.5" x2="170.5" y1="1004.873" y2="1017.873"/><line style="stroke:#181818;stroke-width:1.0;" x1="129.5" x2="170.5" y1="1017.873" y2="1017.873"/><polygon fill="#181818" points="139.5,1013.873,129.5,1017.873,139.5,1021.873,135.5,1017.873" style="stroke:#181818;stroke-width:1.0;"/><text fill="#000000" font-family="sans-serif" font-size="13" lengthAdjust="spacing" textLength="83" x="135.5" y="1000.1309">Call add(7, 2)</text><!--SRC=[xP5FImCn4CNl-oc6FSWkr0gA28lqKj2BY2WzbsaoTODf4fEijT_U_6cthLlmf2SlopBpoxmtRv1vRM7co1O6hHTC65GULYZKKU51B2pQpHHPIu0EqiyHKJhFcyQrQ8dFZRUt7rhmIHdXbrHyylR4Wqw9zuxw1oFWnAJV6AhEk6HIEwhpa5a2uv0YseNpINBPm7Edm5ZzQd5Ln4hi97iDI8syAiSNKYnMc_0PErtMHLvYJqrROc_0KdKPqlZsOC0_QX-uJWMpKG1apcRFzLR3R4le2VAMOBHGFaJTatqoFPa3799RxPdXaSfcryAte6WDf7pGtor_CFIUWjLECI-qWh8bASC-VVzWRWGjheUwsup9TrRjH-smdMIcfYWb996g_fjJtEKpT3aLYSu3CaRE_Hm6SlxRKGI9wce4ruCmc2HKS_eq8gXN9sA8VTZsqtK5kVz4Sw8t8xYilm00]--></g></svg>