<?xml version="1.0" encoding="us-ascii" standalone="no"?><svg xmlns="http://www.w3.org/2000/svg" xmlns:xlink="http://www.w3.org/1999/xlink" contentStyleType="text/css" height="1032px" preserveAspectRatio="none" style="width:770px;height:1032px;background:#FFFFFF;" version="1.1" viewBox="0 0 770 1032" width="770px" zoomAndPan="magnify"><defs/><g><line style="stroke:#181818;stroke-width:0.5;stroke-dasharray:5.0,5.0;" x1="22" x2="22" y1="81.4883" y2="951.4941"/><line style="stroke:#181818;stroke-width:0.5;stroke-dasharray:5.0,5.0;" x1="98" x2="98" y1="81.4883" y2="951.4941"/><line style="stroke:#181818;stroke-width:0.5;stroke-dasharray:5.0,5.0;" x1="294.5" x2="294.5" y1="81.4883" y2="951.4941"/><line style="stroke:#181818;stroke-width:0.5;stroke-dasharray:5.0,5.0;" x1="412.5" x2="412.5" y1="81.4883" y2="951.4941"/><line style="stroke:#181818;stroke-width:0.5;stroke-dasharray:5.0,5.0;" x1="584.5" x2="584.5" y1="81.4883" y2="951.4941"/><line style="stroke:#181818;stroke-width:0.5;stroke-dasharray:5.0,5.0;" x1="679.5" x2="679.5" y1="81.4883" y2="951.4941"/><line style="stroke:#181818;stroke-width:0.5;stroke-dasharray:5.0,5.0;" x1="742.5" x2="742.5" y1="81.4883" y2="951.4941"/><text fill="#000000" font-family="sans-serif" font-size="14" lengthAdjust="spacing" textLength="28" x="5" y="78.5352">&#29992;&#25143;</text><ellipse cx="22" cy="13.5" fill="#E2E2F0" rx="8" ry="8" style="stroke:#181818;stroke-width:0.5;"/><path d="M22,21.5 L22,48.5 M9,29.5 L35,29.5 M22,48.5 L9,63.5 M22,48.5 L35,63.5 " fill="none" style="stroke:#181818;stroke-width:0.5;"/><text fill="#000000" font-family="sans-serif" font-size="14" lengthAdjust="spacing" textLength="28" x="5" y="964.0293">&#29992;&#25143;</text><ellipse cx="22" cy="975.4824" fill="#E2E2F0" rx="8" ry="8" style="stroke:#181818;stroke-width:0.5;"/><path d="M22,983.4824 L22,1010.4824 M9,991.4824 L35,991.4824 M22,1010.4824 L9,1025.4824 M22,1010.4824 L35,1025.4824 " fill="none" style="stroke:#181818;stroke-width:0.5;"/><rect fill="#E2E2F0" height="30.4883" rx="2.5" ry="2.5" style="stroke:#181818;stroke-width:0.5;" width="58" x="69" y="50"/><text fill="#000000" font-family="sans-serif" font-size="14" lengthAdjust="spacing" textLength="44" x="76" y="70.5352">main()</text><rect fill="#E2E2F0" height="30.4883" rx="2.5" ry="2.5" style="stroke:#181818;stroke-width:0.5;" width="58" x="69" y="950.4941"/><text fill="#000000" font-family="sans-serif" font-size="14" lengthAdjust="spacing" textLength="44" x="76" y="971.0293">main()</text><rect fill="#E2E2F0" height="30.4883" rx="2.5" ry="2.5" style="stroke:#181818;stroke-width:0.5;" width="105" x="242.5" y="50"/><text fill="#000000" font-family="sans-serif" font-size="14" lengthAdjust="spacing" textLength="91" x="249.5" y="70.5352">load_library()</text><rect fill="#E2E2F0" height="30.4883" rx="2.5" ry="2.5" style="stroke:#181818;stroke-width:0.5;" width="105" x="242.5" y="950.4941"/><text fill="#000000" font-family="sans-serif" font-size="14" lengthAdjust="spacing" textLength="91" x="249.5" y="971.0293">load_library()</text><rect fill="#E2E2F0" height="30.4883" rx="2.5" ry="2.5" style="stroke:#181818;stroke-width:0.5;" width="110" x="357.5" y="50"/><text fill="#000000" font-family="sans-serif" font-size="14" lengthAdjust="spacing" textLength="96" x="364.5" y="70.5352">get_function()</text><rect fill="#E2E2F0" height="30.4883" rx="2.5" ry="2.5" style="stroke:#181818;stroke-width:0.5;" width="110" x="357.5" y="950.4941"/><text fill="#000000" font-family="sans-serif" font-size="14" lengthAdjust="spacing" textLength="96" x="364.5" y="971.0293">get_function()</text><rect fill="#E2E2F0" height="30.4883" rx="2.5" ry="2.5" style="stroke:#181818;stroke-width:0.5;" width="109" x="530.5" y="50"/><text fill="#000000" font-family="sans-serif" font-size="14" lengthAdjust="spacing" textLength="95" x="537.5" y="70.5352">LibraryHandle</text><rect fill="#E2E2F0" height="30.4883" rx="2.5" ry="2.5" style="stroke:#181818;stroke-width:0.5;" width="109" x="530.5" y="950.4941"/><text fill="#000000" font-family="sans-serif" font-size="14" lengthAdjust="spacing" textLength="95" x="537.5" y="971.0293">LibraryHandle</text><rect fill="#E2E2F0" height="30.4883" rx="2.5" ry="2.5" style="stroke:#181818;stroke-width:0.5;" width="61" x="649.5" y="50"/><text fill="#000000" font-family="sans-serif" font-size="14" lengthAdjust="spacing" textLength="47" x="656.5" y="70.5352">dlfcn.h</text><rect fill="#E2E2F0" height="30.4883" rx="2.5" ry="2.5" style="stroke:#181818;stroke-width:0.5;" width="61" x="649.5" y="950.4941"/><text fill="#000000" font-family="sans-serif" font-size="14" lengthAdjust="spacing" textLength="47" x="656.5" y="971.0293">dlfcn.h</text><rect fill="#E2E2F0" height="30.4883" rx="2.5" ry="2.5" style="stroke:#181818;stroke-width:0.5;" width="44" x="720.5" y="50"/><text fill="#000000" font-family="sans-serif" font-size="14" lengthAdjust="spacing" textLength="30" x="727.5" y="70.5352">func</text><rect fill="#E2E2F0" height="30.4883" rx="2.5" ry="2.5" style="stroke:#181818;stroke-width:0.5;" width="44" x="720.5" y="950.4941"/><text fill="#000000" font-family="sans-serif" font-size="14" lengthAdjust="spacing" textLength="30" x="727.5" y="971.0293">func</text><polygon fill="#181818" points="86,108.7988,96,112.7988,86,116.7988,90,112.7988" style="stroke:#181818;stroke-width:1.0;"/><line style="stroke:#181818;stroke-width:1.0;" x1="22" x2="92" y1="112.7988" y2="112.7988"/><text fill="#000000" font-family="sans-serif" font-size="13" lengthAdjust="spacing" textLength="52" x="29" y="108.0566">&#25191;&#34892;&#31243;&#24207;</text><polygon fill="#181818" points="283,138.1094,293,142.1094,283,146.1094,287,142.1094" style="stroke:#181818;stroke-width:1.0;"/><line style="stroke:#181818;stroke-width:1.0;" x1="98" x2="289" y1="142.1094" y2="142.1094"/><text fill="#000000" font-family="sans-serif" font-size="13" lengthAdjust="spacing" textLength="173" x="105" y="137.3672">load_library("./libmylib.so")</text><polygon fill="#181818" points="668,167.4199,678,171.4199,668,175.4199,672,171.4199" style="stroke:#181818;stroke-width:1.0;"/><line style="stroke:#181818;stroke-width:1.0;" x1="295" x2="674" y1="171.4199" y2="171.4199"/><text fill="#000000" font-family="sans-serif" font-size="13" lengthAdjust="spacing" textLength="222" x="302" y="166.6777">dlopen("./libmylib.so", RTLD_LAZY)</text><polygon fill="#181818" points="306,196.7305,296,200.7305,306,204.7305,302,200.7305" style="stroke:#181818;stroke-width:1.0;"/><line style="stroke:#181818;stroke-width:1.0;stroke-dasharray:2.0,2.0;" x1="300" x2="679" y1="200.7305" y2="200.7305"/><text fill="#000000" font-family="sans-serif" font-size="13" lengthAdjust="spacing" textLength="101" x="312" y="195.9883">&#36820;&#22238; raw_handle</text><polygon fill="#181818" points="573,226.041,583,230.041,573,234.041,577,230.041" style="stroke:#181818;stroke-width:1.0;"/><line style="stroke:#181818;stroke-width:1.0;" x1="295" x2="579" y1="230.041" y2="230.041"/><text fill="#000000" font-family="sans-serif" font-size="13" lengthAdjust="spacing" textLength="266" x="302" y="225.2988">&#21019;&#24314; LibraryHandle(raw_handle, dl_deleter)</text><polygon fill="#181818" points="109,255.3516,99,259.3516,109,263.3516,105,259.3516" style="stroke:#181818;stroke-width:1.0;"/><line style="stroke:#181818;stroke-width:1.0;stroke-dasharray:2.0,2.0;" x1="103" x2="294" y1="259.3516" y2="259.3516"/><text fill="#000000" font-family="sans-serif" font-size="13" lengthAdjust="spacing" textLength="117" x="115" y="254.6094">&#36820;&#22238; LibraryHandle</text><polygon fill="#181818" points="400.5,284.6621,410.5,288.6621,400.5,292.6621,404.5,288.6621" style="stroke:#181818;stroke-width:1.0;"/><line style="stroke:#181818;stroke-width:1.0;" x1="98" x2="406.5" y1="288.6621" y2="288.6621"/><text fill="#000000" font-family="sans-serif" font-size="13" lengthAdjust="spacing" textLength="250" x="105" y="283.9199">get_function&lt;hello_t&gt;(handle1, "hello")</text><polygon fill="#181818" points="668,313.9727,678,317.9727,668,321.9727,672,317.9727" style="stroke:#181818;stroke-width:1.0;"/><line style="stroke:#181818;stroke-width:1.0;" x1="412.5" x2="674" y1="317.9727" y2="317.9727"/><text fill="#000000" font-family="sans-serif" font-size="13" lengthAdjust="spacing" textLength="177" x="419.5" y="313.2305">dlsym(handle1.get(), "hello")</text><polygon fill="#181818" points="423.5,343.2832,413.5,347.2832,423.5,351.2832,419.5,347.2832" style="stroke:#181818;stroke-width:1.0;"/><line style="stroke:#181818;stroke-width:1.0;stroke-dasharray:2.0,2.0;" x1="417.5" x2="679" y1="347.2832" y2="347.2832"/><text fill="#000000" font-family="sans-serif" font-size="13" lengthAdjust="spacing" textLength="58" x="429.5" y="342.541">&#36820;&#22238; func</text><polygon fill="#181818" points="109,372.5938,99,376.5938,109,380.5938,105,376.5938" style="stroke:#181818;stroke-width:1.0;"/><line style="stroke:#181818;stroke-width:1.0;stroke-dasharray:2.0,2.0;" x1="103" x2="411.5" y1="376.5938" y2="376.5938"/><text fill="#000000" font-family="sans-serif" font-size="13" lengthAdjust="spacing" textLength="58" x="115" y="371.8516">&#36820;&#22238; func</text><polygon fill="#181818" points="730.5,401.9043,740.5,405.9043,730.5,409.9043,734.5,405.9043" style="stroke:#181818;stroke-width:1.0;"/><line style="stroke:#181818;stroke-width:1.0;" x1="98" x2="736.5" y1="405.9043" y2="405.9043"/><text fill="#000000" font-family="sans-serif" font-size="13" lengthAdjust="spacing" textLength="39" x="105" y="401.1621">hello()</text><polygon fill="#181818" points="109,431.2148,99,435.2148,109,439.2148,105,435.2148" style="stroke:#181818;stroke-width:1.0;"/><line style="stroke:#181818;stroke-width:1.0;stroke-dasharray:2.0,2.0;" x1="103" x2="741.5" y1="435.2148" y2="435.2148"/><text fill="#000000" font-family="sans-serif" font-size="13" lengthAdjust="spacing" textLength="91" x="115" y="430.4727">&#25191;&#34892; hello &#20989;&#25968;</text><polygon fill="#181818" points="283,460.5254,293,464.5254,283,468.5254,287,464.5254" style="stroke:#181818;stroke-width:1.0;"/><line style="stroke:#181818;stroke-width:1.0;" x1="98" x2="289" y1="464.5254" y2="464.5254"/><text fill="#000000" font-family="sans-serif" font-size="13" lengthAdjust="spacing" textLength="173" x="105" y="459.7832">load_library("./libmylib.so")</text><polygon fill="#181818" points="573,489.8359,583,493.8359,573,497.8359,577,493.8359" style="stroke:#181818;stroke-width:1.0;"/><line style="stroke:#181818;stroke-width:1.0;" x1="295" x2="579" y1="493.8359" y2="493.8359"/><text fill="#000000" font-family="sans-serif" font-size="13" lengthAdjust="spacing" textLength="52" x="302" y="489.0938">&#26816;&#26597;&#32531;&#23384;</text><polygon fill="#181818" points="306,519.1465,296,523.1465,306,527.1465,302,523.1465" style="stroke:#181818;stroke-width:1.0;"/><line style="stroke:#181818;stroke-width:1.0;stroke-dasharray:2.0,2.0;" x1="300" x2="584" y1="523.1465" y2="523.1465"/><text fill="#000000" font-family="sans-serif" font-size="13" lengthAdjust="spacing" textLength="111" x="312" y="518.4043">&#36820;&#22238;&#32531;&#23384;&#30340; handle</text><polygon fill="#181818" points="109,548.457,99,552.457,109,556.457,105,552.457" style="stroke:#181818;stroke-width:1.0;"/><line style="stroke:#181818;stroke-width:1.0;stroke-dasharray:2.0,2.0;" x1="103" x2="294" y1="552.457" y2="552.457"/><text fill="#000000" font-family="sans-serif" font-size="13" lengthAdjust="spacing" textLength="117" x="115" y="547.7148">&#36820;&#22238; LibraryHandle</text><polygon fill="#181818" points="400.5,577.7676,410.5,581.7676,400.5,585.7676,404.5,581.7676" style="stroke:#181818;stroke-width:1.0;"/><line style="stroke:#181818;stroke-width:1.0;" x1="98" x2="406.5" y1="581.7676" y2="581.7676"/><text fill="#000000" font-family="sans-serif" font-size="13" lengthAdjust="spacing" textLength="234" x="105" y="577.0254">get_function&lt;add_t&gt;(handle2, "add")</text><polygon fill="#181818" points="668,607.0781,678,611.0781,668,615.0781,672,611.0781" style="stroke:#181818;stroke-width:1.0;"/><line style="stroke:#181818;stroke-width:1.0;" x1="412.5" x2="674" y1="611.0781" y2="611.0781"/><text fill="#000000" font-family="sans-serif" font-size="13" lengthAdjust="spacing" textLength="169" x="419.5" y="606.3359">dlsym(handle2.get(), "add")</text><polygon fill="#181818" points="423.5,636.3887,413.5,640.3887,423.5,644.3887,419.5,640.3887" style="stroke:#181818;stroke-width:1.0;"/><line style="stroke:#181818;stroke-width:1.0;stroke-dasharray:2.0,2.0;" x1="417.5" x2="679" y1="640.3887" y2="640.3887"/><text fill="#000000" font-family="sans-serif" font-size="13" lengthAdjust="spacing" textLength="58" x="429.5" y="635.6465">&#36820;&#22238; func</text><polygon fill="#181818" points="109,665.6992,99,669.6992,109,673.6992,105,669.6992" style="stroke:#181818;stroke-width:1.0;"/><line style="stroke:#181818;stroke-width:1.0;stroke-dasharray:2.0,2.0;" x1="103" x2="411.5" y1="669.6992" y2="669.6992"/><text fill="#000000" font-family="sans-serif" font-size="13" lengthAdjust="spacing" textLength="58" x="115" y="664.957">&#36820;&#22238; func</text><polygon fill="#181818" points="730.5,695.0098,740.5,699.0098,730.5,703.0098,734.5,699.0098" style="stroke:#181818;stroke-width:1.0;"/><line style="stroke:#181818;stroke-width:1.0;" x1="98" x2="736.5" y1="699.0098" y2="699.0098"/><text fill="#000000" font-family="sans-serif" font-size="13" lengthAdjust="spacing" textLength="55" x="105" y="694.2676">add(3, 5)</text><polygon fill="#181818" points="109,724.3203,99,728.3203,109,732.3203,105,728.3203" style="stroke:#181818;stroke-width:1.0;"/><line style="stroke:#181818;stroke-width:1.0;stroke-dasharray:2.0,2.0;" x1="103" x2="741.5" y1="728.3203" y2="728.3203"/><text fill="#000000" font-family="sans-serif" font-size="13" lengthAdjust="spacing" textLength="64" x="115" y="723.5781">&#36820;&#22238;&#32467;&#26524; 8</text><polygon fill="#181818" points="283,753.6309,293,757.6309,283,761.6309,287,757.6309" style="stroke:#181818;stroke-width:1.0;"/><line style="stroke:#181818;stroke-width:1.0;" x1="98" x2="289" y1="757.6309" y2="757.6309"/><text fill="#000000" font-family="sans-serif" font-size="13" lengthAdjust="spacing" textLength="173" x="105" y="752.8887">load_library("./libmylib.so")</text><polygon fill="#181818" points="573,782.9414,583,786.9414,573,790.9414,577,786.9414" style="stroke:#181818;stroke-width:1.0;"/><line style="stroke:#181818;stroke-width:1.0;" x1="295" x2="579" y1="786.9414" y2="786.9414"/><text fill="#000000" font-family="sans-serif" font-size="13" lengthAdjust="spacing" textLength="52" x="302" y="782.1992">&#26816;&#26597;&#32531;&#23384;</text><polygon fill="#181818" points="306,812.252,296,816.252,306,820.252,302,816.252" style="stroke:#181818;stroke-width:1.0;"/><line style="stroke:#181818;stroke-width:1.0;stroke-dasharray:2.0,2.0;" x1="300" x2="584" y1="816.252" y2="816.252"/><text fill="#000000" font-family="sans-serif" font-size="13" lengthAdjust="spacing" textLength="111" x="312" y="811.5098">&#36820;&#22238;&#32531;&#23384;&#30340; handle</text><polygon fill="#181818" points="109,841.5625,99,845.5625,109,849.5625,105,845.5625" style="stroke:#181818;stroke-width:1.0;"/><line style="stroke:#181818;stroke-width:1.0;stroke-dasharray:2.0,2.0;" x1="103" x2="294" y1="845.5625" y2="845.5625"/><text fill="#000000" font-family="sans-serif" font-size="13" lengthAdjust="spacing" textLength="117" x="115" y="840.8203">&#36820;&#22238; LibraryHandle</text><polygon fill="#181818" points="730.5,870.873,740.5,874.873,730.5,878.873,734.5,874.873" style="stroke:#181818;stroke-width:1.0;"/><line style="stroke:#181818;stroke-width:1.0;" x1="98" x2="736.5" y1="874.873" y2="874.873"/><text fill="#000000" font-family="sans-serif" font-size="13" lengthAdjust="spacing" textLength="55" x="105" y="870.1309">add(7, 2)</text><polygon fill="#181818" points="109,900.1836,99,904.1836,109,908.1836,105,904.1836" style="stroke:#181818;stroke-width:1.0;"/><line style="stroke:#181818;stroke-width:1.0;stroke-dasharray:2.0,2.0;" x1="103" x2="741.5" y1="904.1836" y2="904.1836"/><text fill="#000000" font-family="sans-serif" font-size="13" lengthAdjust="spacing" textLength="64" x="115" y="899.4414">&#36820;&#22238;&#32467;&#26524; 9</text><polygon fill="#181818" points="33,929.4941,23,933.4941,33,937.4941,29,933.4941" style="stroke:#181818;stroke-width:1.0;"/><line style="stroke:#181818;stroke-width:1.0;stroke-dasharray:2.0,2.0;" x1="27" x2="97" y1="933.4941" y2="933.4941"/><text fill="#000000" font-family="sans-serif" font-size="13" lengthAdjust="spacing" textLength="52" x="39" y="928.752">&#31243;&#24207;&#32467;&#26463;</text><!--SRC=[rLGnIyD06DtlLtnaIY2jM14rI45mSEWaBhg4QvBQG9gKD2BT70Gh2Wwj85PRHCGkWflGAlwQfFqPNkvoJQuL7UhYabo-xttltliU11k1vyEuCuXQRwYE_S0sx3fs0v1gs7PbHGBSWFWeDXqFcxfZbttiDnCGBud0GolGAqUk4TWUP-Cb4LXYP3lODHsB4TfblKe_HQJfL0mtNwKOUaQ8wOTSaKhL83f_dZnSZWSNuV0AnQMunGLg8AYNyalaM6kIHxxXIGhYtNY6yclavTKjTnQgmkvUQLilRHtiAuWY8IVSC_diXDqU-FYO6ybof_uq25lTS3G4OGboEgSI1RffELPW-Lc1KyF9JSByr3XVk0RPD3QhbkDuUb2KsHtBAaYqH5R0SS8A6iqQX-O9G5Oo0wdxzB944uqw9PoLJDjSAHkafBA2PWPOgAmBuTb7TFsA5Wet6q3qU1BrdyRlxV3b1gMDRmDbgF7jASobkb0Ws3JJE0fakwJmUnY5QHWC_gTH44fvHONLkJ2IJOpQKUyErlzf3gd7DHKAFtlSu1v9c_rkD60_c1Xmt_y2]--></g></svg>